<?xml version="1.0" encoding="UTF-8" standalone="no"?>
<!DOCTYPE svg PUBLIC "-//W3C//DTD SVG 1.1//EN" "http://www.w3.org/Graphics/SVG/1.1/DTD/svg11.dtd">
<svg xmlns="http://www.w3.org/2000/svg" version="1.1" viewBox="0.00 0.00 64.00 64.00">
<g stroke-width="2.00" fill="none" stroke-linecap="butt">
<path stroke="#858585" vector-effect="non-scaling-stroke" d="
  M 30.47 38.97
  Q 31.15 38.95 30.88 39.57
  Q 28.92 44.23 33.16 47.03
  Q 33.25 47.09 33.33 47.01
  L 33.50 46.83
  Q 33.56 46.76 33.49 46.71
  C 29.12 43.49 31.27 40.74 32.65 36.89
  A 2.44 2.44 0.0 0 0 30.26 33.62
  Q 28.48 33.69 25.43 32.60
  A 0.20 0.19 11.3 0 1 25.30 32.42
  Q 25.29 32.17 25.45 32.08
  Q 26.10 31.71 25.36 31.78
  Q 25.02 31.81 24.71 31.74
  Q 24.33 31.66 24.09 31.35
  Q 23.26 30.27 24.16 29.19
  Q 24.47 28.80 24.97 28.88
  Q 27.49 29.28 30.27 28.96
  C 34.86 28.44 35.67 32.75 39.35 33.86
  Q 39.57 33.92 39.63 33.70
  L 39.70 33.43
  Q 39.76 33.22 39.56 33.15
  Q 37.97 32.57 36.73 31.41
  C 34.65 29.45 36.15 25.45 36.73 23.14
  Q 38.10 17.72 38.21 8.37
  C 38.22 7.11 39.31 6.15 40.60 6.59
  A 1.65 1.65 0.0 0 1 41.72 7.97
  C 41.96 10.17 42.17 12.45 42.04 14.73
  Q 41.36 26.53 40.73 37.02
  C 40.54 40.16 41.12 43.48 40.28 46.56
  C 39.43 49.71 39.76 53.30 39.78 56.52
  Q 39.78 56.73 39.99 56.71
  L 40.25 56.69
  Q 40.51 56.68 40.48 56.41
  Q 39.94 51.34 40.92 46.81
  C 41.72 43.07 41.00 39.08 41.47 35.24
  C 42.05 30.52 41.80 25.65 42.32 20.92
  Q 43.03 14.56 42.55 8.44
  Q 42.37 6.21 40.17 5.89
  Q 39.50 5.79 38.86 6.17
  Q 37.67 6.87 37.63 8.25
  Q 37.35 16.81 36.13 23.64
  Q 35.89 25.03 34.90 24.03
  C 32.77 21.86 29.77 21.81 28.61 25.00
  Q 28.46 25.44 28.00 25.38
  Q 25.81 25.12 24.30 26.52
  Q 23.88 26.91 23.84 27.48
  Q 23.65 29.82 21.90 31.06
  C 17.52 34.16 22.58 45.83 24.56 49.63
  C 25.83 52.05 25.44 54.59 25.58 57.21
  Q 25.58 57.28 25.65 57.31
  L 25.92 57.42
  Q 26.21 57.54 26.22 57.23
  Q 26.27 55.23 26.20 53.05
  Q 26.14 51.17 25.04 49.26
  Q 21.37 42.92 20.98 35.84
  Q 20.88 34.04 22.16 35.32
  Q 23.45 36.60 24.23 38.28
  Q 24.56 39.00 25.34 39.16
  Q 26.96 39.51 27.99 38.10
  Q 28.30 37.68 28.62 38.10
  Q 29.32 39.02 30.47 38.97"
/>
<path stroke="#858585" vector-effect="non-scaling-stroke" d="
  M 38.85 17.82
  A 0.25 0.24 -42.6 0 0 38.83 18.25
  Q 39.51 18.65 40.27 18.17
  Q 40.94 17.73 40.15 17.61
  Q 39.48 17.52 38.85 17.82"
/>
<path stroke="#858585" vector-effect="non-scaling-stroke" d="
  M 35.14 28.51
  L 35.23 26.75
  Q 35.32 24.93 33.86 23.85
  C 30.80 21.57 28.21 24.81 29.35 27.62
  A 1.32 1.31 74.0 0 0 30.79 28.42
  Q 32.62 28.09 33.94 29.08
  Q 35.07 29.93 35.14 28.51"
/>
<path stroke="#858585" vector-effect="non-scaling-stroke" d="
  M 27.71 26.02
  L 25.42 26.36
  A 0.92 0.91 -81.5 0 0 24.72 26.88
  Q 24.55 27.24 24.51 27.66
  Q 24.45 28.28 25.07 28.28
  L 28.79 28.25
  Q 29.14 28.25 28.98 27.94
  L 28.10 26.22
  A 0.39 0.37 71.0 0 0 27.71 26.02"
/>
<path stroke="#858585" vector-effect="non-scaling-stroke" d="
  M 30.11 35.91
  Q 29.90 36.58 29.40 37.08
  Q 28.92 37.56 29.49 37.91
  Q 30.06 38.26 30.71 38.31
  Q 31.44 38.36 31.50 37.63
  L 31.69 35.42
  Q 31.76 34.63 30.97 34.55
  Q 29.57 34.42 28.16 34.03
  Q 27.33 33.80 27.71 34.58
  Q 28.09 35.33 27.91 36.11
  Q 27.77 36.71 27.47 36.18
  Q 27.09 35.53 27.21 34.73
  A 0.82 0.82 0.0 0 0 26.67 33.85
  Q 24.81 33.18 23.39 31.77
  A 0.99 0.99 0.0 0 0 21.98 31.78
  L 21.57 32.21
  A 0.97 0.97 0.0 0 0 21.63 33.62
  Q 23.22 35.01 24.22 37.00
  C 24.68 37.90 25.47 38.13 26.23 38.67
  Q 26.60 38.94 26.52 38.49
  Q 26.48 38.31 26.32 38.21
  A 0.24 0.23 -56.8 0 1 26.25 37.86
  Q 26.95 36.98 27.96 37.28
  Q 28.35 37.39 28.63 37.09
  L 29.86 35.76
  Q 30.31 35.27 30.11 35.91"
/>
</g>
<path fill="#ffffff" d="
  M 29.37 0.00
  L 34.75 0.00
  Q 60.03 4.08 64.00 29.36
  L 64.00 34.74
  Q 59.91 60.05 34.64 64.00
  L 29.26 64.00
  Q 3.95 59.91 0.00 34.64
  L 0.00 29.25
  Q 4.08 3.97 29.37 0.00
  Z
  M 30.47 38.97
  Q 31.15 38.95 30.88 39.57
  Q 28.92 44.23 33.16 47.03
  Q 33.25 47.09 33.33 47.01
  L 33.50 46.83
  Q 33.56 46.76 33.49 46.71
  C 29.12 43.49 31.27 40.74 32.65 36.89
  A 2.44 2.44 0.0 0 0 30.26 33.62
  Q 28.48 33.69 25.43 32.60
  A 0.20 0.19 11.3 0 1 25.30 32.42
  Q 25.29 32.17 25.45 32.08
  Q 26.10 31.71 25.36 31.78
  Q 25.02 31.81 24.71 31.74
  Q 24.33 31.66 24.09 31.35
  Q 23.26 30.27 24.16 29.19
  Q 24.47 28.80 24.97 28.88
  Q 27.49 29.28 30.27 28.96
  C 34.86 28.44 35.67 32.75 39.35 33.86
  Q 39.57 33.92 39.63 33.70
  L 39.70 33.43
  Q 39.76 33.22 39.56 33.15
  Q 37.97 32.57 36.73 31.41
  C 34.65 29.45 36.15 25.45 36.73 23.14
  Q 38.10 17.72 38.21 8.37
  C 38.22 7.11 39.31 6.15 40.60 6.59
  A 1.65 1.65 0.0 0 1 41.72 7.97
  C 41.96 10.17 42.17 12.45 42.04 14.73
  Q 41.36 26.53 40.73 37.02
  C 40.54 40.16 41.12 43.48 40.28 46.56
  C 39.43 49.71 39.76 53.30 39.78 56.52
  Q 39.78 56.73 39.99 56.71
  L 40.25 56.69
  Q 40.51 56.68 40.48 56.41
  Q 39.94 51.34 40.92 46.81
  C 41.72 43.07 41.00 39.08 41.47 35.24
  C 42.05 30.52 41.80 25.65 42.32 20.92
  Q 43.03 14.56 42.55 8.44
  Q 42.37 6.21 40.17 5.89
  Q 39.50 5.79 38.86 6.17
  Q 37.67 6.87 37.63 8.25
  Q 37.35 16.81 36.13 23.64
  Q 35.89 25.03 34.90 24.03
  C 32.77 21.86 29.77 21.81 28.61 25.00
  Q 28.46 25.44 28.00 25.38
  Q 25.81 25.12 24.30 26.52
  Q 23.88 26.91 23.84 27.48
  Q 23.65 29.82 21.90 31.06
  C 17.52 34.16 22.58 45.83 24.56 49.63
  C 25.83 52.05 25.44 54.59 25.58 57.21
  Q 25.58 57.28 25.65 57.31
  L 25.92 57.42
  Q 26.21 57.54 26.22 57.23
  Q 26.27 55.23 26.20 53.05
  Q 26.14 51.17 25.04 49.26
  Q 21.37 42.92 20.98 35.84
  Q 20.88 34.04 22.16 35.32
  Q 23.45 36.60 24.23 38.28
  Q 24.56 39.00 25.34 39.16
  Q 26.96 39.51 27.99 38.10
  Q 28.30 37.68 28.62 38.10
  Q 29.32 39.02 30.47 38.97
  Z
  M 38.85 17.82
  A 0.25 0.24 -42.6 0 0 38.83 18.25
  Q 39.51 18.65 40.27 18.17
  Q 40.94 17.73 40.15 17.61
  Q 39.48 17.52 38.85 17.82
  Z"
/>
<path fill="#0b0b0a" d="
  M 27.99 38.10
  Q 26.96 39.51 25.34 39.16
  Q 24.56 39.00 24.23 38.28
  Q 23.45 36.60 22.16 35.32
  Q 20.88 34.04 20.98 35.84
  Q 21.37 42.92 25.04 49.26
  Q 26.14 51.17 26.20 53.05
  Q 26.27 55.23 26.22 57.23
  Q 26.21 57.54 25.92 57.42
  L 25.65 57.31
  Q 25.58 57.28 25.58 57.21
  C 25.44 54.59 25.83 52.05 24.56 49.63
  C 22.58 45.83 17.52 34.16 21.90 31.06
  Q 23.65 29.82 23.84 27.48
  Q 23.88 26.91 24.30 26.52
  Q 25.81 25.12 28.00 25.38
  Q 28.46 25.44 28.61 25.00
  C 29.77 21.81 32.77 21.86 34.90 24.03
  Q 35.89 25.03 36.13 23.64
  Q 37.35 16.81 37.63 8.25
  Q 37.67 6.87 38.86 6.17
  Q 39.50 5.79 40.17 5.89
  Q 42.37 6.21 42.55 8.44
  Q 43.03 14.56 42.32 20.92
  C 41.80 25.65 42.05 30.52 41.47 35.24
  C 41.00 39.08 41.72 43.07 40.92 46.81
  Q 39.94 51.34 40.48 56.41
  Q 40.51 56.68 40.25 56.69
  L 39.99 56.71
  Q 39.78 56.73 39.78 56.52
  C 39.76 53.30 39.43 49.71 40.28 46.56
  C 41.12 43.48 40.54 40.16 40.73 37.02
  Q 41.36 26.53 42.04 14.73
  C 42.17 12.45 41.96 10.17 41.72 7.97
  A 1.65 1.65 0.0 0 0 40.60 6.59
  C 39.31 6.15 38.22 7.11 38.21 8.37
  Q 38.10 17.72 36.73 23.14
  C 36.15 25.45 34.65 29.45 36.73 31.41
  Q 37.97 32.57 39.56 33.15
  Q 39.76 33.22 39.70 33.43
  L 39.63 33.70
  Q 39.57 33.92 39.35 33.86
  C 35.67 32.75 34.86 28.44 30.27 28.96
  Q 27.49 29.28 24.97 28.88
  Q 24.47 28.80 24.16 29.19
  Q 23.26 30.27 24.09 31.35
  Q 24.33 31.66 24.71 31.74
  Q 25.02 31.81 25.36 31.78
  Q 26.10 31.71 25.45 32.08
  Q 25.29 32.17 25.30 32.42
  A 0.20 0.19 11.3 0 0 25.43 32.60
  Q 28.48 33.69 30.26 33.62
  A 2.44 2.44 0.0 0 1 32.65 36.89
  C 31.27 40.74 29.12 43.49 33.49 46.71
  Q 33.56 46.76 33.50 46.83
  L 33.33 47.01
  Q 33.25 47.09 33.16 47.03
  Q 28.92 44.23 30.88 39.57
  Q 31.15 38.95 30.47 38.97
  Q 29.32 39.02 28.62 38.10
  Q 28.30 37.68 27.99 38.10
  Z
  M 35.14 28.51
  L 35.23 26.75
  Q 35.32 24.93 33.86 23.85
  C 30.80 21.57 28.21 24.81 29.35 27.62
  A 1.32 1.31 74.0 0 0 30.79 28.42
  Q 32.62 28.09 33.94 29.08
  Q 35.07 29.93 35.14 28.51
  Z
  M 27.71 26.02
  L 25.42 26.36
  A 0.92 0.91 -81.5 0 0 24.72 26.88
  Q 24.55 27.24 24.51 27.66
  Q 24.45 28.28 25.07 28.28
  L 28.79 28.25
  Q 29.14 28.25 28.98 27.94
  L 28.10 26.22
  A 0.39 0.37 71.0 0 0 27.71 26.02
  Z
  M 30.11 35.91
  Q 29.90 36.58 29.40 37.08
  Q 28.92 37.56 29.49 37.91
  Q 30.06 38.26 30.71 38.31
  Q 31.44 38.36 31.50 37.63
  L 31.69 35.42
  Q 31.76 34.63 30.97 34.55
  Q 29.57 34.42 28.16 34.03
  Q 27.33 33.80 27.71 34.58
  Q 28.09 35.33 27.91 36.11
  Q 27.77 36.71 27.47 36.18
  Q 27.09 35.53 27.21 34.73
  A 0.82 0.82 0.0 0 0 26.67 33.85
  Q 24.81 33.18 23.39 31.77
  A 0.99 0.99 0.0 0 0 21.98 31.78
  L 21.57 32.21
  A 0.97 0.97 0.0 0 0 21.63 33.62
  Q 23.22 35.01 24.22 37.00
  C 24.68 37.90 25.47 38.13 26.23 38.67
  Q 26.60 38.94 26.52 38.49
  Q 26.48 38.31 26.32 38.21
  A 0.24 0.23 -56.8 0 1 26.25 37.86
  Q 26.95 36.98 27.96 37.28
  Q 28.35 37.39 28.63 37.09
  L 29.86 35.76
  Q 30.31 35.27 30.11 35.91
  Z"
/>
<path fill="#0b0b0a" d="
  M 38.85 17.82
  Q 39.48 17.52 40.15 17.61
  Q 40.94 17.73 40.27 18.17
  Q 39.51 18.65 38.83 18.25
  A 0.25 0.24 -42.6 0 1 38.85 17.82
  Z"
/>
<path fill="#ffffff" d="
  M 33.94 29.08
  Q 32.62 28.09 30.79 28.42
  A 1.32 1.31 74.0 0 1 29.35 27.62
  C 28.21 24.81 30.80 21.57 33.86 23.85
  Q 35.32 24.93 35.23 26.75
  L 35.14 28.51
  Q 35.07 29.93 33.94 29.08
  Z"
/>
<path fill="#ffffff" d="
  M 27.71 26.02
  A 0.39 0.37 71.0 0 1 28.10 26.22
  L 28.98 27.94
  Q 29.14 28.25 28.79 28.25
  L 25.07 28.28
  Q 24.45 28.28 24.51 27.66
  Q 24.55 27.24 24.72 26.88
  A 0.92 0.91 -81.5 0 1 25.42 26.36
  L 27.71 26.02
  Z"
/>
<path fill="#ffffff" d="
  M 29.86 35.76
  L 28.63 37.09
  Q 28.35 37.39 27.96 37.28
  Q 26.95 36.98 26.25 37.86
  A 0.24 0.23 -56.8 0 0 26.32 38.21
  Q 26.48 38.31 26.52 38.49
  Q 26.60 38.94 26.23 38.67
  C 25.47 38.13 24.68 37.90 24.22 37.00
  Q 23.22 35.01 21.63 33.62
  A 0.97 0.97 0.0 0 1 21.57 32.21
  L 21.98 31.78
  A 0.99 0.99 0.0 0 1 23.39 31.77
  Q 24.81 33.18 26.67 33.85
  A 0.82 0.82 0.0 0 1 27.21 34.73
  Q 27.09 35.53 27.47 36.18
  Q 27.77 36.71 27.91 36.11
  Q 28.09 35.33 27.71 34.58
  Q 27.33 33.80 28.16 34.03
  Q 29.57 34.42 30.97 34.55
  Q 31.76 34.63 31.69 35.42
  L 31.50 37.63
  Q 31.44 38.36 30.71 38.31
  Q 30.06 38.26 29.49 37.91
  Q 28.92 37.56 29.40 37.08
  Q 29.90 36.58 30.11 35.91
  Q 30.31 35.27 29.86 35.76
  Z"
/>
</svg>
