<svg width="21" height="21" viewBox="0 0 21 21" fill="none" xmlns="http://www.w3.org/2000/svg">
<circle cx="10.1421" cy="10.1421" r="10" fill="#D9D9D9"/>
<path d="M10.9895 10.1422L14.8301 6.30181C14.9127 6.21904 14.9127 6.08494 14.8301 6.00217L14.2823 5.45414C14.2426 5.41451 14.1886 5.39209 14.1324 5.39209C14.0762 5.39209 14.0222 5.41451 13.9825 5.45414L10.1421 9.29458L6.30163 5.45414C6.22206 5.37458 6.08125 5.37468 6.00189 5.45414L5.45426 6.00217C5.37149 6.08494 5.37149 6.21904 5.45426 6.30181L9.2947 10.1422L5.45426 13.9825C5.37149 14.0653 5.37149 14.1994 5.45426 14.2821L6.00199 14.8302C6.04172 14.8698 6.09566 14.8922 6.15191 14.8922C6.20815 14.8922 6.262 14.8698 6.30173 14.8302L10.1422 10.9897L13.9826 14.8302C14.0223 14.8698 14.0764 14.8922 14.1325 14.8922C14.1887 14.8922 14.2427 14.8698 14.2824 14.8302L14.8302 14.2821C14.9128 14.1994 14.9128 14.0653 14.8302 13.9825L10.9895 10.1422Z" fill="#8F8F8F" stroke="#8F8F8F" stroke-width="1.49"/>
</svg>
