<?xml version="1.0" encoding="UTF-8" standalone="no"?>
<!DOCTYPE svg PUBLIC "-//W3C//DTD SVG 1.1//EN" "http://www.w3.org/Graphics/SVG/1.1/DTD/svg11.dtd">
<svg xmlns="http://www.w3.org/2000/svg" version="1.1" viewBox="0.00 0.00 500.00 500.00">
<path fill="#000000" d="
  M 218.08 309.55
  L 217.92 311.67
  A 1.57 1.50 -30.7 0 1 217.75 312.28
  Q 215.49 316.64 211.31 319.14
  C 205.77 322.45 199.18 318.65 196.82 313.12
  Q 195.97 311.10 195.90 306.78
  Q 195.65 290.64 195.77 279.25
  Q 195.80 276.52 195.50 273.43
  C 195.00 268.26 190.90 265.70 185.84 266.37
  Q 178.76 267.31 178.16 272.68
  Q 177.75 276.42 177.74 280.56
  Q 177.73 294.08 177.43 308.10
  Q 177.31 313.73 173.51 317.30
  C 168.43 322.06 160.71 319.49 157.72 313.77
  C 155.77 310.04 156.05 303.52 156.06 299.14
  Q 156.11 285.68 155.71 273.11
  C 155.57 268.90 152.75 266.35 148.56 266.59
  C 145.42 266.77 139.81 267.29 139.36 271.44
  Q 139.10 273.81 138.99 276.48
  Q 138.35 292.68 138.20 308.50
  Q 138.12 316.78 130.90 319.85
  C 126.16 321.87 120.78 316.67 118.82 312.83
  Q 117.17 309.57 117.18 304.95
  C 117.23 290.98 117.86 277.19 116.85 263.31
  Q 116.38 256.76 114.69 250.25
  A 0.93 0.93 0.0 0 1 115.29 249.14
  C 122.02 246.82 133.91 246.95 138.96 252.94
  A 0.81 0.81 0.0 0 0 140.08 253.06
  Q 147.41 247.37 158.24 247.89
  C 164.51 248.20 169.06 251.06 173.76 254.64
  A 1.57 1.56 -43.9 0 0 175.63 254.67
  Q 186.41 246.99 198.99 247.43
  Q 199.58 247.45 199.43 246.89
  Q 197.38 238.71 196.95 228.54
  Q 196.86 226.49 197.76 224.66
  C 198.59 222.96 198.67 220.99 200.13 219.67
  Q 202.65 217.40 205.52 215.26
  C 207.48 213.81 206.61 212.10 207.74 210.42
  Q 208.40 209.43 209.31 208.61
  Q 209.74 208.23 209.79 207.67
  Q 210.11 204.43 211.23 201.77
  C 213.14 197.27 219.12 195.65 223.54 195.81
  Q 225.15 195.87 226.45 197.01
  A 0.64 0.64 0.0 0 0 227.50 196.62
  C 228.59 189.32 234.11 184.17 241.89 185.95
  Q 248.85 187.55 252.33 193.26
  A 0.57 0.57 0.0 0 0 253.34 193.19
  C 255.78 187.45 257.03 181.59 257.37 175.32
  C 257.59 171.37 258.68 167.63 258.95 163.68
  Q 259.95 149.28 260.44 134.66
  C 260.64 128.65 265.97 122.93 272.21 125.83
  C 278.82 128.90 278.40 134.38 278.63 140.50
  Q 279.48 163.17 277.06 184.24
  Q 276.30 190.80 276.47 196.70
  Q 276.98 214.81 274.00 235.84
  Q 273.24 241.19 273.55 247.38
  Q 273.58 247.93 274.12 248.03
  C 279.33 248.97 283.39 251.84 287.62 254.83
  A 1.06 1.06 0.0 0 0 288.84 254.83
  C 297.85 248.44 308.83 245.29 319.54 249.25
  C 328.87 252.69 330.64 262.23 330.66 271.00
  Q 330.72 292.73 331.56 310.25
  C 331.75 314.18 326.29 318.61 323.46 319.80
  Q 319.07 321.64 314.46 318.24
  Q 309.54 314.61 309.44 308.46
  Q 309.21 294.53 309.25 279.39
  Q 309.26 276.42 308.99 273.48
  C 308.03 263.06 291.63 264.37 291.43 273.81
  Q 291.06 291.58 291.00 307.22
  Q 290.98 314.52 285.96 318.13
  C 279.81 322.55 271.55 317.69 270.18 310.81
  Q 269.74 308.60 269.80 306.31
  Q 269.82 305.70 269.21 305.71
  Q 268.95 305.71 268.70 305.81
  A 0.19 0.18 -11.2 0 1 268.44 305.64
  Q 268.62 297.99 268.41 290.33
  C 268.26 284.75 269.10 279.52 269.18 274.07
  C 269.30 265.56 262.10 265.78 256.31 267.60
  C 254.71 268.11 253.05 269.28 252.90 271.13
  Q 252.57 275.43 252.33 280.09
  Q 252.30 280.66 252.82 280.89
  L 253.60 281.24
  Q 254.45 281.63 253.63 282.10
  Q 253.28 282.30 252.87 282.22
  Q 252.17 282.09 252.17 282.80
  Q 252.02 296.29 251.59 309.78
  Q 251.39 316.18 245.27 319.46
  Q 242.40 321.00 239.60 319.73
  Q 230.68 315.67 230.70 304.77
  C 230.73 290.21 231.45 275.80 230.17 261.39
  Q 229.67 255.71 228.20 250.38
  A 1.09 1.09 0.0 0 1 228.92 249.04
  Q 232.02 248.06 234.91 247.90
  Q 235.87 247.85 236.20 246.95
  L 236.83 245.27
  Q 237.20 244.27 236.17 244.54
  Q 230.55 246.01 226.36 241.92
  Q 225.73 241.31 225.32 242.08
  Q 222.45 247.40 214.71 245.97
  A 1.38 1.37 78.9 0 1 213.81 245.36
  L 210.01 239.43
  Q 209.26 238.26 208.15 239.08
  Q 205.62 240.93 202.41 240.95
  Q 202.07 240.95 202.06 240.61
  L 202.05 240.33
  A 0.32 0.31 -3.9 0 1 202.34 240.01
  Q 205.38 239.74 207.65 238.08
  Q 208.67 237.34 207.97 236.30
  L 205.44 232.55
  Q 204.88 231.71 204.09 232.36
  Q 203.01 233.24 201.58 233.53
  Q 201.21 233.60 200.93 233.35
  Q 200.71 233.16 200.76 232.98
  Q 200.82 232.75 201.03 232.62
  Q 202.19 231.90 203.32 231.38
  Q 204.53 230.83 203.26 230.44
  L 200.34 229.54
  Q 199.46 229.27 199.50 230.19
  Q 199.92 239.11 201.56 247.30
  A 1.07 1.06 0.4 0 0 202.37 248.12
  Q 215.96 251.10 216.87 266.13
  Q 217.43 275.32 217.24 286.73
  C 217.19 289.74 220.23 288.91 222.10 289.10
  Q 225.64 289.44 228.79 288.05
  A 0.81 0.79 -30.9 0 1 229.74 288.28
  L 229.91 288.50
  A 0.42 0.42 0.0 0 1 229.71 289.17
  Q 224.63 290.79 219.26 289.80
  A 0.68 0.68 0.0 0 0 218.46 290.49
  L 219.05 308.50
  Q 219.07 309.03 218.54 309.10
  Q 218.34 309.12 218.18 309.31
  Q 218.09 309.42 218.08 309.55
  Z
  M 238.67 225.48
  Q 238.40 226.67 237.33 227.34
  Q 236.66 227.75 237.30 228.22
  L 243.46 232.69
  Q 243.80 232.94 243.82 233.37
  Q 243.84 233.93 243.39 234.36
  A 1.24 1.23 -41.4 0 0 243.28 236.03
  Q 249.03 243.12 258.31 246.40
  Q 258.46 246.45 258.41 246.60
  L 258.31 246.88
  Q 258.16 247.32 257.71 247.17
  Q 248.90 244.20 242.75 237.34
  A 0.45 0.45 0.0 0 0 241.99 237.48
  L 238.43 247.13
  Q 238.20 247.76 238.87 247.80
  C 242.59 248.03 245.53 248.70 248.88 250.02
  Q 249.91 250.42 249.07 249.70
  L 243.65 245.03
  A 0.43 0.41 40.0 0 1 243.59 244.45
  L 243.81 244.19
  A 0.28 0.27 -50.1 0 1 244.20 244.15
  L 253.64 251.79
  A 1.46 1.44 -41.6 0 0 255.34 251.88
  Q 262.41 247.28 271.12 247.99
  A 0.51 0.51 0.0 0 0 271.67 247.41
  C 271.37 245.06 271.21 242.78 271.46 240.39
  Q 272.95 226.26 274.07 213.21
  C 274.77 205.05 274.02 196.31 274.63 187.91
  Q 275.27 179.20 275.87 170.97
  Q 277.11 153.82 275.70 133.25
  C 275.36 128.27 269.40 125.01 265.37 128.48
  Q 262.64 130.83 262.63 134.88
  Q 262.59 154.86 259.07 180.38
  Q 258.07 187.61 255.18 195.01
  Q 255.00 195.47 254.58 195.71
  Q 253.49 196.33 253.52 197.60
  Q 253.73 206.11 254.02 214.12
  Q 254.09 215.78 255.67 216.58
  Q 256.45 216.98 256.95 216.27
  Q 257.64 215.29 258.72 215.12
  Q 260.18 214.89 259.09 215.89
  L 257.40 217.46
  A 0.48 0.48 0.0 0 0 257.41 218.17
  L 261.82 222.02
  A 1.59 1.59 0.0 0 0 263.75 222.14
  L 269.44 218.34
  Q 269.86 218.06 270.12 218.49
  L 270.29 218.78
  Q 270.45 219.07 270.18 219.26
  L 264.97 222.92
  Q 264.31 223.39 265.02 223.78
  L 268.20 225.52
  Q 269.03 225.96 268.61 226.81
  L 268.43 227.16
  A 1.07 1.06 -58.8 0 1 266.85 227.55
  C 264.11 225.56 261.05 224.33 258.52 221.96
  Q 252.89 216.66 247.69 212.13
  Q 244.71 209.54 239.89 209.34
  Q 232.94 209.05 226.30 208.99
  Q 225.62 208.98 225.68 209.66
  C 226.05 213.96 225.93 218.22 220.79 219.35
  Q 215.07 220.61 210.19 217.32
  Q 210.13 217.29 210.10 217.34
  L 209.95 217.55
  Q 209.79 217.80 210.02 217.98
  Q 212.75 220.07 215.36 221.83
  C 217.03 222.95 218.90 222.33 220.65 223.24
  Q 224.74 225.36 232.04 226.22
  C 234.07 226.45 236.10 225.35 238.03 224.86
  A 0.52 0.52 0.0 0 1 238.67 225.48
  Z
  M 241.95 207.11
  C 245.07 207.25 248.70 210.39 251.10 212.24
  Q 251.82 212.80 251.77 211.88
  Q 251.45 206.15 251.39 199.63
  C 251.35 194.96 249.70 191.63 245.47 189.66
  C 240.21 187.20 234.15 186.90 231.02 192.96
  C 230.00 194.94 228.62 197.71 229.35 199.94
  Q 230.30 202.87 230.55 206.10
  Q 230.62 206.89 231.41 206.89
  Q 236.37 206.87 241.95 207.11
  Z
  M 213.32 207.02
  L 228.15 206.50
  A 0.46 0.46 0.0 0 0 228.60 206.02
  L 228.57 205.21
  A 7.73 7.61 88.0 0 0 220.69 197.75
  L 220.15 197.77
  A 7.73 7.61 88.0 0 0 212.82 205.76
  L 212.85 206.57
  A 0.46 0.46 0.0 0 0 213.32 207.02
  Z
  M 222.52 208.98
  L 211.55 209.27
  A 2.24 2.24 0.0 0 0 209.37 211.56
  L 209.39 212.35
  A 6.63 6.61 -1.5 0 0 216.19 218.79
  L 218.39 218.73
  A 6.63 6.61 -1.5 0 0 224.84 211.95
  L 224.82 211.16
  A 2.24 2.24 0.0 0 0 222.52 208.98
  Z
  M 202.15 224.49
  A 0.99 0.98 70.2 0 1 203.07 224.93
  Q 208.41 232.95 213.64 241.10
  Q 214.41 242.29 215.26 243.32
  Q 216.79 245.18 216.87 242.77
  C 216.96 240.03 219.06 239.42 221.11 238.51
  Q 222.47 237.91 223.87 237.99
  A 0.70 0.70 0.0 0 0 224.59 237.12
  Q 223.38 232.24 221.18 227.56
  C 220.36 225.82 218.78 224.49 216.77 224.56
  Q 215.46 224.61 214.36 223.89
  Q 209.49 220.68 207.28 217.54
  Q 207.00 217.14 206.59 217.40
  Q 202.66 219.81 200.54 223.40
  Q 199.77 224.71 201.28 224.57
  L 202.15 224.49
  Z
  M 200.71 225.51
  Q 200.36 225.21 200.08 225.57
  Q 199.35 226.53 199.99 227.29
  Q 200.46 227.84 201.27 227.90
  Q 202.05 227.95 201.83 227.21
  Q 201.55 226.25 200.71 225.51
  Z
  M 229.85 241.03
  C 228.79 238.00 229.46 233.82 233.32 233.57
  Q 235.20 233.44 237.10 233.49
  C 238.34 233.53 238.92 234.46 239.70 235.23
  Q 241.03 236.54 240.83 234.68
  C 240.59 232.55 237.24 230.59 235.45 229.62
  Q 233.11 228.37 230.27 228.09
  Q 227.07 227.77 223.65 226.71
  Q 222.46 226.35 223.18 227.36
  Q 226.47 232.05 226.45 238.02
  Q 226.45 238.58 226.80 239.01
  Q 227.87 240.36 229.15 241.50
  Q 230.41 242.63 229.85 241.03
  Z
  M 238.1712 235.5330
  A 4.53 4.07 -42.1 0 0 232.0814 235.5502
  A 4.53 4.07 -42.1 0 0 231.4488 241.6070
  A 4.53 4.07 -42.1 0 0 237.5386 241.5898
  A 4.53 4.07 -42.1 0 0 238.1712 235.5330
  Z
  M 223.5679 239.8160
  A 3.29 1.62 -34.3 0 0 219.9371 240.3317
  A 3.29 1.62 -34.3 0 0 218.1321 243.5240
  A 3.29 1.62 -34.3 0 0 221.7629 243.0083
  A 3.29 1.62 -34.3 0 0 223.5679 239.8160
  Z
  M 252.10 252.61
  Q 252.24 252.98 252.61 253.11
  Q 252.87 253.19 253.06 253.02
  Q 253.44 252.70 253.02 252.44
  L 251.37 251.37
  Q 250.85 251.03 251.15 251.57
  Q 251.32 251.88 251.63 252.05
  Q 251.96 252.25 252.10 252.61
  Z"
/>
<rect fill="#000000" x="-3.84" y="-0.70" transform="translate(269.59,150.45) rotate(3.9)" width="7.68" height="1.40" rx="0.65"/>
<path fill="#000000" d="
  M 264.01 167.52
  Q 268.02 166.64 271.76 168.51
  A 0.27 0.27 0.0 0 1 271.91 168.77
  L 271.90 169.33
  Q 271.88 169.78 271.49 169.57
  Q 268.11 167.84 264.32 168.50
  Q 263.84 168.58 263.82 168.09
  L 263.81 167.78
  Q 263.81 167.57 264.01 167.52
  Z"
/>
<ellipse fill="#000000" cx="0.00" cy="0.00" transform="translate(266.88,171.22) rotate(8.1)" rx="2.92" ry="0.78"/>
<path fill="#000000" d="
  M 235.55 192.01
  A 0.17 0.17 0.0 0 1 235.69 191.82
  L 235.89 191.77
  A 6.02 0.52 -11.1 0 1 241.90 191.13
  L 241.94 191.34
  A 6.02 0.52 -11.1 0 1 236.13 193.01
  L 235.93 193.05
  A 0.17 0.17 0.0 0 1 235.73 192.92
  L 235.55 192.01
  Z"
/>
<ellipse fill="#000000" cx="0.00" cy="0.00" transform="translate(220.09,200.99) rotate(-15.2)" rx="2.03" ry="0.54"/>
<path fill="#000000" d="
  M 440.90 257.29
  C 448.63 249.80 455.82 247.59 466.42 248.59
  C 471.26 249.05 474.60 252.99 477.52 256.73
  Q 479.97 259.87 480.52 262.81
  Q 481.27 266.82 481.34 270.51
  Q 481.73 291.91 481.09 310.75
  C 481.02 312.65 480.45 314.58 479.02 315.88
  C 474.26 320.19 468.97 319.76 464.04 316.00
  C 461.60 314.14 461.08 310.27 461.01 307.50
  Q 460.69 295.21 460.70 282.10
  Q 460.71 277.04 459.81 272.77
  Q 458.49 266.49 452.03 267.09
  C 447.58 267.50 441.30 270.08 441.11 275.31
  Q 440.54 290.85 440.13 308.70
  Q 439.99 314.79 434.39 317.79
  C 427.94 321.24 423.17 316.10 420.27 311.15
  Q 419.89 310.51 419.88 309.76
  C 419.69 282.09 419.89 254.62 418.74 227.16
  C 418.61 223.93 418.03 220.80 417.62 217.60
  A 1.20 1.18 -12.0 0 1 418.47 216.31
  C 424.08 214.63 432.73 213.98 437.77 217.75
  Q 442.27 221.11 441.69 227.93
  Q 440.45 242.52 440.48 257.11
  A 0.25 0.25 0.0 0 0 440.90 257.29
  Z"
/>
<path fill="#000000" d="
  M 66.91 300.43
  C 73.70 299.98 78.18 293.66 79.16 287.33
  Q 80.25 280.26 80.42 272.24
  Q 80.80 254.08 80.47 237.50
  Q 80.32 229.94 79.10 222.70
  A 0.99 0.98 -9.5 0 1 79.92 221.56
  Q 84.81 220.79 90.68 220.95
  C 95.28 221.07 100.40 221.16 103.68 224.98
  Q 104.78 226.26 104.49 228.83
  Q 103.66 235.97 103.33 244.14
  Q 102.62 261.74 101.83 279.94
  C 101.09 296.92 96.82 312.16 78.35 316.71
  Q 65.62 319.86 51.29 318.03
  C 41.95 316.84 33.77 312.86 29.24 304.24
  Q 24.11 294.49 24.04 285.68
  Q 23.86 261.18 23.69 236.28
  Q 23.65 229.94 22.51 223.31
  A 0.51 0.50 75.5 0 1 22.83 222.75
  C 29.86 220.23 40.39 219.46 47.25 223.35
  A 1.10 1.07 -83.4 0 1 47.76 224.01
  Q 48.22 225.75 47.98 227.73
  Q 45.12 251.33 46.33 282.45
  C 46.86 296.13 53.35 301.34 66.91 300.43
  Z"
/>
<path fill="#000000" d="
  M 383.36 310.34
  A 0.45 0.45 0.0 0 0 382.62 310.19
  C 375.14 317.69 365.31 319.37 355.32 317.23
  C 350.02 316.09 346.74 312.98 344.11 308.26
  Q 342.10 304.66 341.87 301.97
  C 341.51 297.73 340.83 290.68 343.20 286.65
  C 350.32 274.52 368.37 271.90 381.10 273.59
  Q 381.80 273.68 381.86 272.98
  C 382.21 268.83 382.15 264.00 376.83 263.29
  Q 366.68 261.93 359.14 268.28
  C 354.31 272.35 347.38 266.99 345.08 262.73
  C 343.20 259.25 347.68 255.88 350.22 254.23
  C 360.44 247.58 371.37 246.35 383.28 247.64
  C 396.82 249.10 403.68 258.68 403.35 271.99
  Q 403.01 286.07 403.03 299.90
  C 403.04 305.79 405.07 306.46 410.37 305.15
  A 0.36 0.36 0.0 0 1 410.78 305.65
  C 409.80 307.81 409.03 310.15 407.68 312.09
  Q 402.62 319.33 392.55 317.66
  Q 385.80 316.54 383.36 310.34
  Z
  M 378.47 300.17
  C 379.92 299.09 380.87 297.62 380.99 295.80
  Q 381.30 291.04 381.53 286.09
  Q 381.55 285.61 381.07 285.56
  C 373.74 284.89 359.50 285.28 360.35 296.36
  C 361.13 306.47 373.04 304.24 378.47 300.17
  Z"
/>
</svg>
