<?xml version="1.0" encoding="UTF-8" standalone="no"?>
<!DOCTYPE svg PUBLIC "-//W3C//DTD SVG 1.1//EN" "http://www.w3.org/Graphics/SVG/1.1/DTD/svg11.dtd">
<svg xmlns="http://www.w3.org/2000/svg" version="1.1" viewBox="0.00 0.00 500.00 500.00">
<g stroke-width="2.00" fill="none" stroke-linecap="butt">
<path stroke="#808080" vector-effect="non-scaling-stroke" d="
  M 198.89 247.50
  Q 187.11 246.73 175.34 254.82
  A 1.14 1.14 0.0 0 1 174.03 254.80
  C 169.60 251.52 165.05 248.42 159.36 247.98
  Q 147.66 247.09 139.98 253.12
  Q 139.46 253.53 139.03 253.02
  Q 136.45 249.89 132.49 248.91
  C 126.74 247.49 121.07 247.22 115.37 249.10
  Q 114.59 249.35 114.77 250.15
  C 118.62 267.77 117.52 286.47 117.19 305.03
  Q 117.04 313.57 123.65 318.42
  C 126.84 320.77 130.22 320.97 133.47 318.44
  Q 138.08 314.85 138.17 309.20
  C 138.38 296.70 138.30 283.86 139.38 271.33
  C 139.72 267.30 146.07 266.57 149.02 266.60
  Q 155.52 266.67 155.73 273.80
  Q 156.12 286.50 156.06 300.20
  Q 156.04 305.00 156.50 309.76
  C 157.16 316.49 164.60 322.09 171.16 318.89
  C 176.61 316.23 177.60 310.61 177.59 304.80
  Q 177.54 289.09 177.95 273.91
  C 178.12 267.76 184.20 265.46 189.44 266.51
  C 195.61 267.75 195.75 273.37 195.76 278.43
  Q 195.79 292.45 195.87 307.14
  Q 195.89 310.56 196.80 312.98
  C 198.55 317.69 204.61 321.93 209.74 319.89
  Q 213.65 318.35 216.72 314.06
  C 217.88 312.42 218.98 308.62 218.95 306.60
  Q 218.81 298.42 218.41 290.62
  Q 218.36 289.69 219.28 289.84
  Q 225.03 290.78 229.58 289.20
  A 0.54 0.54 0.0 0 0 229.86 288.41
  L 229.73 288.19
  A 0.34 0.33 65.3 0 0 229.34 288.04
  Q 224.50 289.55 218.82 288.89
  A 1.81 1.81 0.0 0 1 217.22 287.05
  Q 217.45 276.37 216.86 266.20
  Q 215.97 250.98 202.25 248.10
  Q 201.70 247.99 201.59 247.45
  Q 199.92 239.19 199.48 230.26
  A 0.74 0.74 0.0 0 1 200.46 229.53
  L 203.56 230.60
  A 0.36 0.36 0.0 0 1 203.57 231.28
  Q 202.29 231.77 201.18 232.60
  Q 200.16 233.37 201.43 233.43
  Q 202.76 233.50 203.85 232.52
  Q 204.83 231.64 205.56 232.73
  L 208.04 236.41
  Q 208.64 237.31 207.79 237.97
  Q 205.44 239.78 202.50 239.98
  A 0.45 0.44 -4.4 0 0 202.08 240.46
  L 202.10 240.75
  Q 202.11 240.97 202.33 240.96
  Q 206.01 240.83 208.76 238.67
  Q 209.24 238.29 209.59 238.80
  Q 211.41 241.54 213.33 244.69
  Q 214.19 246.09 216.00 246.24
  Q 223.09 246.81 225.46 241.83
  Q 225.71 241.29 226.13 241.72
  Q 230.36 246.08 236.35 244.51
  Q 237.11 244.31 236.86 245.06
  L 236.17 247.04
  Q 235.99 247.55 235.46 247.66
  L 228.94 248.94
  A 0.91 0.90 -11.9 0 0 228.23 250.02
  C 232.14 267.65 230.95 286.66 230.72 305.28
  Q 230.61 314.51 238.53 319.27
  C 242.98 321.94 247.78 318.82 250.15 315.02
  C 251.77 312.43 251.69 308.55 251.75 305.44
  Q 251.96 294.22 252.21 282.78
  Q 252.23 281.96 253.00 282.22
  Q 253.28 282.31 253.55 282.19
  Q 254.18 281.92 253.73 281.40
  Q 253.36 280.96 252.79 280.88
  Q 252.28 280.80 252.31 280.29
  Q 252.55 276.05 252.85 271.52
  C 253.12 267.42 258.97 266.68 262.03 266.60
  C 270.79 266.36 269.43 275.21 268.78 281.03
  Q 268.41 284.30 268.45 287.49
  Q 268.55 296.59 268.46 305.32
  Q 268.45 305.98 269.01 305.62
  Q 269.17 305.52 269.38 305.64
  Q 269.82 305.88 269.80 306.38
  C 269.59 312.12 271.63 316.73 277.07 319.03
  C 285.01 322.39 290.91 314.97 290.95 307.75
  Q 291.06 290.92 291.42 274.45
  C 291.48 272.00 291.95 269.84 294.08 268.31
  C 299.16 264.65 308.14 265.50 308.95 273.27
  Q 309.25 276.12 309.24 279.00
  Q 309.18 292.88 309.37 306.31
  Q 309.44 311.02 310.32 313.11
  C 312.67 318.68 319.46 322.62 325.11 318.97
  C 327.86 317.20 331.77 313.53 331.56 309.97
  C 330.71 295.01 331.10 278.18 330.38 265.78
  C 330.04 259.96 327.51 253.66 322.36 250.62
  C 311.70 244.35 298.32 248.14 288.79 254.86
  A 0.95 0.94 -45.3 0 1 287.71 254.87
  C 283.41 251.91 279.28 248.86 274.05 248.06
  Q 273.49 247.97 273.49 247.40
  C 273.44 236.96 275.19 226.64 276.08 216.30
  C 276.65 209.50 276.54 202.65 276.40 195.79
  Q 276.28 189.99 277.28 182.28
  C 279.15 167.87 278.94 153.62 278.67 137.92
  C 278.57 132.03 276.91 127.04 270.58 125.28
  Q 268.47 124.69 266.23 125.66
  Q 260.71 128.04 260.46 134.67
  Q 259.94 148.79 258.99 163.26
  C 258.72 167.41 257.59 171.29 257.36 175.42
  Q 256.84 185.12 253.30 193.29
  A 0.49 0.48 -49.3 0 1 252.45 193.36
  Q 248.84 187.70 242.47 186.10
  C 234.15 184.01 228.83 188.99 227.44 196.78
  Q 227.30 197.56 226.65 197.10
  C 225.68 196.43 224.61 195.74 223.38 195.76
  C 215.34 195.84 210.36 199.29 209.81 207.70
  A 1.25 1.23 -17.8 0 1 209.33 208.61
  Q 207.81 209.78 207.32 211.49
  C 206.94 212.83 206.97 214.18 205.73 215.11
  Q 202.78 217.30 200.21 219.60
  C 198.68 220.97 198.47 223.20 197.62 225.00
  Q 196.92 226.52 196.96 228.20
  Q 197.24 237.87 199.43 246.86
  Q 199.60 247.54 198.89 247.50"
/>
<path stroke="#808080" vector-effect="non-scaling-stroke" d="
  M 440.48 256.83
  Q 440.38 243.45 441.68 228.24
  Q 442.28 221.28 438.01 217.92
  C 433.08 214.04 424.07 214.57 418.44 216.33
  A 1.18 1.18 0.0 0 0 417.62 217.58
  C 417.94 220.44 418.55 223.27 418.68 226.15
  Q 419.25 238.27 419.38 250.16
  Q 419.65 275.65 419.83 308.69
  Q 419.85 310.73 420.92 312.26
  C 422.85 315.01 426.62 319.44 430.32 318.94
  Q 439.86 317.66 440.14 307.91
  Q 440.43 297.81 441.00 276.67
  C 441.05 274.72 441.43 272.20 443.07 270.85
  C 447.83 266.91 457.88 263.92 459.77 272.64
  Q 460.73 277.07 460.72 282.34
  Q 460.67 295.45 461.02 307.81
  C 461.10 310.46 461.66 314.19 464.01 315.98
  Q 468.28 319.23 471.98 318.92
  Q 481.11 318.14 481.28 309.02
  Q 481.60 291.26 481.44 273.50
  C 481.40 269.13 481.31 262.42 478.94 258.81
  C 476.39 254.93 472.24 249.59 467.49 248.80
  Q 463.24 248.08 458.04 248.53
  C 451.31 249.10 446.07 252.44 441.13 257.11
  Q 440.49 257.71 440.48 256.83"
/>
<path stroke="#808080" vector-effect="non-scaling-stroke" d="
  M 50.81 296.06
  Q 47.14 292.05 46.79 287.33
  Q 44.65 258.07 48.02 226.75
  Q 48.16 225.47 47.82 224.18
  A 1.33 1.31 -81.2 0 0 47.25 223.39
  Q 45.30 222.19 42.93 221.64
  Q 32.75 219.29 22.82 222.75
  A 0.55 0.53 -15.7 0 0 22.47 223.36
  Q 23.70 229.37 23.72 236.35
  Q 23.78 261.35 24.07 285.61
  Q 24.17 294.55 28.64 303.25
  Q 34.82 315.32 49.07 317.66
  Q 64.53 320.21 78.83 316.58
  C 97.20 311.91 101.21 296.13 101.89 279.15
  Q 102.61 261.27 103.53 240.12
  Q 103.79 234.15 104.49 228.72
  Q 104.79 226.45 103.84 225.22
  C 101.93 222.76 98.83 221.55 95.81 221.26
  C 90.56 220.75 84.91 220.75 79.88 221.56
  A 0.93 0.93 0.0 0 0 79.11 222.64
  Q 80.22 229.38 80.41 236.25
  Q 80.99 256.97 80.23 276.76
  Q 80.01 282.52 79.02 287.94
  C 78.05 293.27 73.90 299.68 68.08 300.30
  C 62.16 300.93 54.98 300.61 50.81 296.06"
/>
<path stroke="#808080" vector-effect="non-scaling-stroke" d="
  M 383.44 310.51
  Q 385.63 315.59 390.00 316.98
  C 397.04 319.22 404.49 317.84 408.27 311.11
  Q 409.75 308.47 410.73 305.60
  A 0.33 0.33 0.0 0 0 410.33 305.17
  C 407.83 305.83 403.71 306.70 403.32 302.83
  Q 402.93 299.01 402.98 294.88
  Q 403.12 283.88 403.35 272.23
  C 403.80 249.61 386.50 245.46 367.69 247.68
  Q 358.01 248.82 348.92 255.13
  C 346.59 256.75 343.32 259.89 345.13 262.89
  C 347.57 266.95 354.28 272.36 358.99 268.39
  Q 366.98 261.64 377.46 263.44
  C 382.05 264.23 382.21 268.93 381.85 272.94
  Q 381.79 273.62 381.12 273.55
  C 371.06 272.44 361.86 273.38 352.62 277.94
  C 347.53 280.46 342.03 285.72 341.71 291.78
  Q 341.32 299.24 342.10 303.19
  Q 343.08 308.09 348.09 313.54
  C 349.86 315.47 353.16 316.84 355.79 317.33
  Q 368.40 319.69 377.51 314.33
  C 379.34 313.25 380.95 311.72 382.52 310.31
  Q 383.12 309.77 383.44 310.51"
/>
<path stroke="#808080" vector-effect="non-scaling-stroke" d="
  M 238.60 225.30
  Q 238.67 226.56 237.46 227.22
  Q 236.69 227.63 237.36 228.19
  Q 240.12 230.47 242.98 232.24
  Q 243.63 232.65 243.78 233.04
  Q 244.01 233.69 243.39 234.28
  A 1.31 1.31 0.0 0 0 243.28 236.04
  Q 249.03 243.16 258.04 246.26
  A 0.44 0.44 0.0 0 1 258.31 246.81
  L 258.21 247.13
  Q 258.14 247.34 257.92 247.27
  C 252.00 245.26 247.00 241.97 242.83 237.44
  Q 242.23 236.80 241.93 237.62
  L 238.42 247.17
  Q 238.22 247.71 238.80 247.74
  Q 244.75 248.00 250.11 250.62
  Q 250.21 250.67 250.13 250.60
  L 243.63 245.03
  A 0.39 0.39 0.0 0 1 243.59 244.49
  L 243.76 244.28
  Q 244.00 243.99 244.29 244.23
  L 253.85 251.94
  A 1.07 1.07 0.0 0 0 255.10 252.00
  Q 262.37 247.28 271.06 248.01
  Q 271.64 248.06 271.62 247.48
  C 271.55 245.65 271.18 243.65 271.36 241.85
  Q 272.83 227.01 274.08 213.20
  C 274.78 205.47 274.01 197.58 274.53 190.04
  Q 275.19 180.44 275.94 170.20
  Q 277.02 155.43 275.80 134.06
  C 275.66 131.70 274.92 129.61 272.88 128.31
  Q 267.88 125.11 264.49 129.50
  Q 262.67 131.86 262.64 133.75
  C 262.51 141.96 262.44 149.75 261.62 157.86
  Q 260.33 170.64 258.97 181.17
  Q 258.25 186.72 255.20 195.04
  Q 255.02 195.51 254.61 195.80
  L 253.92 196.26
  Q 253.48 196.56 253.50 197.09
  Q 253.69 206.62 254.05 214.20
  Q 254.14 215.92 255.82 216.67
  Q 256.31 216.89 256.67 216.49
  Q 257.64 215.41 259.03 214.87
  Q 259.08 214.85 259.11 214.89
  L 259.42 215.29
  Q 259.59 215.49 259.39 215.67
  L 257.45 217.38
  Q 256.96 217.80 257.45 218.23
  L 261.82 222.01
  A 1.60 1.59 48.7 0 0 263.75 222.14
  L 269.44 218.35
  Q 269.85 218.08 270.10 218.50
  L 270.23 218.72
  Q 270.43 219.08 270.10 219.31
  L 264.97 222.94
  Q 264.31 223.41 265.02 223.80
  L 268.19 225.53
  Q 268.97 225.96 268.59 226.77
  L 268.42 227.15
  A 1.04 1.04 0.0 0 1 266.87 227.55
  C 264.25 225.68 261.29 224.44 258.87 222.23
  Q 253.70 217.54 248.60 212.86
  Q 245.09 209.62 240.50 209.39
  Q 233.57 209.04 226.29 209.00
  Q 225.65 208.99 225.68 209.63
  C 225.91 214.37 226.02 218.41 220.31 219.42
  Q 217.24 219.97 214.09 219.21
  C 212.78 218.90 211.75 217.98 210.48 217.60
  Q 208.80 217.09 210.23 218.12
  Q 212.56 219.79 214.91 221.60
  C 216.62 222.93 218.94 222.39 220.94 223.38
  Q 225.03 225.39 231.94 226.22
  C 234.04 226.48 235.97 225.38 237.96 224.84
  A 0.51 0.50 -9.2 0 1 238.60 225.30"
/>
<path stroke="#808080" vector-effect="non-scaling-stroke" d="
  M 238.24 188.06
  C 233.09 188.11 230.77 192.51 229.27 197.28
  Q 228.90 198.46 229.28 199.66
  Q 230.30 202.93 230.59 206.18
  Q 230.65 206.86 231.33 206.86
  Q 236.23 206.89 241.17 207.06
  C 245.04 207.20 248.19 209.98 251.07 212.22
  Q 251.80 212.77 251.75 211.86
  Q 251.48 206.20 251.39 199.46
  Q 251.34 196.24 250.21 193.99
  C 248.13 189.89 242.63 188.01 238.24 188.06"
/>
<path stroke="#808080" vector-effect="non-scaling-stroke" d="
  M 213.38 206.99
  L 228.12 206.50
  A 0.53 0.53 0.0 0 0 228.63 205.96
  L 228.60 205.11
  A 7.83 7.62 -1.9 0 0 220.52 197.75
  L 220.38 197.75
  A 7.83 7.62 -1.9 0 0 212.81 205.63
  L 212.84 206.48
  A 0.53 0.53 0.0 0 0 213.38 206.99"
/>
<path stroke="#808080" vector-effect="non-scaling-stroke" d="
  M 222.48 208.97
  L 211.57 209.27
  A 2.24 2.24 0.0 0 0 209.39 211.58
  L 209.42 212.59
  A 6.74 6.39 -1.6 0 0 216.33 218.78
  L 218.25 218.73
  A 6.74 6.39 -1.6 0 0 224.81 212.16
  L 224.78 211.15
  A 2.24 2.24 0.0 0 0 222.48 208.97"
/>
<path stroke="#808080" vector-effect="non-scaling-stroke" d="
  M 200.64 224.71
  C 201.46 224.40 202.64 224.28 203.22 225.14
  Q 208.62 233.27 213.82 241.37
  Q 214.52 242.47 215.37 243.45
  Q 216.81 245.12 216.83 242.91
  C 216.85 239.51 221.26 238.16 223.84 237.95
  Q 224.78 237.88 224.55 236.97
  Q 223.13 231.33 220.88 227.07
  Q 219.44 224.36 216.04 224.52
  Q 215.51 224.54 215.05 224.28
  Q 210.23 221.44 207.28 217.56
  Q 206.99 217.17 206.57 217.42
  Q 202.52 219.89 200.38 223.66
  Q 200.18 224.00 200.29 224.38
  Q 200.32 224.51 200.39 224.63
  A 0.21 0.21 0.0 0 0 200.64 224.71"
/>
<path stroke="#808080" vector-effect="non-scaling-stroke" d="
  M 199.93 225.75
  L 199.69 226.42
  Q 199.47 227.00 199.98 227.36
  Q 200.54 227.77 201.27 227.86
  Q 202.32 227.98 201.84 227.04
  Q 201.45 226.29 200.84 225.58
  Q 200.24 224.89 199.93 225.75"
/>
<path stroke="#808080" vector-effect="non-scaling-stroke" d="
  M 233.12 233.58
  C 235.33 233.35 237.85 232.95 239.41 234.92
  Q 241.09 237.04 240.69 234.37
  Q 240.52 233.17 239.27 232.16
  Q 234.63 228.42 230.22 228.08
  C 228.03 227.91 225.87 227.40 223.77 226.72
  Q 222.40 226.28 223.22 227.46
  Q 226.69 232.49 226.42 238.45
  Q 226.41 238.50 226.44 238.54
  Q 227.56 240.13 229.72 242.03
  A 0.17 0.16 -79.1 0 0 229.98 241.85
  C 228.97 238.59 229.00 234.01 233.12 233.58"
/>
<path stroke="#808080" vector-effect="non-scaling-stroke" d="
  M 238.2312 235.5855
  A 4.54 4.07 -41.1 0 0 232.1345 235.5030
  A 4.54 4.07 -41.1 0 0 231.3888 241.5545
  A 4.54 4.07 -41.1 0 0 237.4855 241.6370
  A 4.54 4.07 -41.1 0 0 238.2312 235.5855"
/>
<path stroke="#808080" vector-effect="non-scaling-stroke" d="
  M 223.5760 239.8211
  A 3.28 1.63 -34.1 0 0 219.9462 240.3103
  A 3.28 1.63 -34.1 0 0 218.1440 243.4989
  A 3.28 1.63 -34.1 0 0 221.7738 243.0097
  A 3.28 1.63 -34.1 0 0 223.5760 239.8211"
/>
<path stroke="#808080" vector-effect="non-scaling-stroke" d="
  M 251.86 252.32
  Q 252.26 253.07 253.04 253.24
  Q 253.17 253.27 253.23 253.16
  L 253.39 252.87
  Q 253.54 252.59 253.25 252.46
  Q 252.13 251.95 251.29 251.31
  Q 249.79 250.15 251.05 251.56
  Q 251.23 251.75 251.45 251.88
  Q 251.71 252.04 251.86 252.32"
/>
<path stroke="#808080" vector-effect="non-scaling-stroke" d="
  M 273.3976 150.6127
  A 0.60 0.60 0.0 0 0 272.8387 149.9743
  L 266.4328 149.5488
  A 0.60 0.60 0.0 0 0 265.7943 150.1077
  L 265.7824 150.2873
  A 0.60 0.60 0.0 0 0 266.3413 150.9257
  L 272.7472 151.3512
  A 0.60 0.60 0.0 0 0 273.3857 150.7923
  L 273.3976 150.6127"
/>
<path stroke="#808080" vector-effect="non-scaling-stroke" d="
  M 271.62 168.42
  Q 267.99 166.74 264.10 167.53
  Q 263.77 167.59 263.84 167.92
  L 263.90 168.19
  Q 263.98 168.53 264.32 168.48
  Q 268.17 167.83 271.31 169.48
  Q 271.62 169.64 271.76 169.31
  L 271.86 169.05
  A 0.49 0.49 0.0 0 0 271.62 168.42"
/>
<path stroke="#808080" vector-effect="non-scaling-stroke" d="
  M 269.51 170.94
  L 264.55 170.22
  A 0.23 0.23 0.0 0 0 264.29 170.41
  L 264.27 170.55
  A 1.38 1.03 8.2 0 0 265.48 171.77
  L 268.18 172.16
  A 1.38 1.03 8.2 0 0 269.69 171.33
  L 269.71 171.20
  A 0.23 0.23 0.0 0 0 269.51 170.94"
/>
<path stroke="#808080" vector-effect="non-scaling-stroke" d="
  M 236.32 193.19
  Q 238.64 191.91 241.46 191.96
  Q 241.90 191.97 241.92 191.54
  L 241.94 191.25
  Q 241.94 191.09 241.78 191.07
  Q 238.65 190.81 236.04 191.98
  A 0.62 0.61 -20.3 0 0 235.70 192.71
  L 235.78 192.97
  Q 235.91 193.42 236.32 193.19"
/>
<path stroke="#808080" vector-effect="non-scaling-stroke" d="
  M 222.0439 200.4874
  A 2.02 0.51 -14.7 0 0 219.9606 200.5067
  A 2.02 0.51 -14.7 0 0 218.1361 201.5126
  A 2.02 0.51 -14.7 0 0 220.2194 201.4933
  A 2.02 0.51 -14.7 0 0 222.0439 200.4874"
/>
<path stroke="#808080" vector-effect="non-scaling-stroke" d="
  M 365.62 303.24
  C 370.60 304.19 375.86 302.77 379.44 299.28
  Q 380.94 297.83 381.06 295.11
  Q 381.27 290.42 381.54 286.21
  Q 381.58 285.63 381.01 285.58
  Q 372.76 284.77 366.34 287.06
  C 360.71 289.06 358.88 294.74 361.34 299.94
  Q 362.64 302.67 365.62 303.24"
/>
</g>
<path fill="#ffffff" d="
  M 0.00 0.00
  L 500.00 0.00
  L 500.00 500.00
  L 0.00 500.00
  L 0.00 0.00
  Z
  M 198.89 247.50
  Q 187.11 246.73 175.34 254.82
  A 1.14 1.14 0.0 0 1 174.03 254.80
  C 169.60 251.52 165.05 248.42 159.36 247.98
  Q 147.66 247.09 139.98 253.12
  Q 139.46 253.53 139.03 253.02
  Q 136.45 249.89 132.49 248.91
  C 126.74 247.49 121.07 247.22 115.37 249.10
  Q 114.59 249.35 114.77 250.15
  C 118.62 267.77 117.52 286.47 117.19 305.03
  Q 117.04 313.57 123.65 318.42
  C 126.84 320.77 130.22 320.97 133.47 318.44
  Q 138.08 314.85 138.17 309.20
  C 138.38 296.70 138.30 283.86 139.38 271.33
  C 139.72 267.30 146.07 266.57 149.02 266.60
  Q 155.52 266.67 155.73 273.80
  Q 156.12 286.50 156.06 300.20
  Q 156.04 305.00 156.50 309.76
  C 157.16 316.49 164.60 322.09 171.16 318.89
  C 176.61 316.23 177.60 310.61 177.59 304.80
  Q 177.54 289.09 177.95 273.91
  C 178.12 267.76 184.20 265.46 189.44 266.51
  C 195.61 267.75 195.75 273.37 195.76 278.43
  Q 195.79 292.45 195.87 307.14
  Q 195.89 310.56 196.80 312.98
  C 198.55 317.69 204.61 321.93 209.74 319.89
  Q 213.65 318.35 216.72 314.06
  C 217.88 312.42 218.98 308.62 218.95 306.60
  Q 218.81 298.42 218.41 290.62
  Q 218.36 289.69 219.28 289.84
  Q 225.03 290.78 229.58 289.20
  A 0.54 0.54 0.0 0 0 229.86 288.41
  L 229.73 288.19
  A 0.34 0.33 65.3 0 0 229.34 288.04
  Q 224.50 289.55 218.82 288.89
  A 1.81 1.81 0.0 0 1 217.22 287.05
  Q 217.45 276.37 216.86 266.20
  Q 215.97 250.98 202.25 248.10
  Q 201.70 247.99 201.59 247.45
  Q 199.92 239.19 199.48 230.26
  A 0.74 0.74 0.0 0 1 200.46 229.53
  L 203.56 230.60
  A 0.36 0.36 0.0 0 1 203.57 231.28
  Q 202.29 231.77 201.18 232.60
  Q 200.16 233.37 201.43 233.43
  Q 202.76 233.50 203.85 232.52
  Q 204.83 231.64 205.56 232.73
  L 208.04 236.41
  Q 208.64 237.31 207.79 237.97
  Q 205.44 239.78 202.50 239.98
  A 0.45 0.44 -4.4 0 0 202.08 240.46
  L 202.10 240.75
  Q 202.11 240.97 202.33 240.96
  Q 206.01 240.83 208.76 238.67
  Q 209.24 238.29 209.59 238.80
  Q 211.41 241.54 213.33 244.69
  Q 214.19 246.09 216.00 246.24
  Q 223.09 246.81 225.46 241.83
  Q 225.71 241.29 226.13 241.72
  Q 230.36 246.08 236.35 244.51
  Q 237.11 244.31 236.86 245.06
  L 236.17 247.04
  Q 235.99 247.55 235.46 247.66
  L 228.94 248.94
  A 0.91 0.90 -11.9 0 0 228.23 250.02
  C 232.14 267.65 230.95 286.66 230.72 305.28
  Q 230.61 314.51 238.53 319.27
  C 242.98 321.94 247.78 318.82 250.15 315.02
  C 251.77 312.43 251.69 308.55 251.75 305.44
  Q 251.96 294.22 252.21 282.78
  Q 252.23 281.96 253.00 282.22
  Q 253.28 282.31 253.55 282.19
  Q 254.18 281.92 253.73 281.40
  Q 253.36 280.96 252.79 280.88
  Q 252.28 280.80 252.31 280.29
  Q 252.55 276.05 252.85 271.52
  C 253.12 267.42 258.97 266.68 262.03 266.60
  C 270.79 266.36 269.43 275.21 268.78 281.03
  Q 268.41 284.30 268.45 287.49
  Q 268.55 296.59 268.46 305.32
  Q 268.45 305.98 269.01 305.62
  Q 269.17 305.52 269.38 305.64
  Q 269.82 305.88 269.80 306.38
  C 269.59 312.12 271.63 316.73 277.07 319.03
  C 285.01 322.39 290.91 314.97 290.95 307.75
  Q 291.06 290.92 291.42 274.45
  C 291.48 272.00 291.95 269.84 294.08 268.31
  C 299.16 264.65 308.14 265.50 308.95 273.27
  Q 309.25 276.12 309.24 279.00
  Q 309.18 292.88 309.37 306.31
  Q 309.44 311.02 310.32 313.11
  C 312.67 318.68 319.46 322.62 325.11 318.97
  C 327.86 317.20 331.77 313.53 331.56 309.97
  C 330.71 295.01 331.10 278.18 330.38 265.78
  C 330.04 259.96 327.51 253.66 322.36 250.62
  C 311.70 244.35 298.32 248.14 288.79 254.86
  A 0.95 0.94 -45.3 0 1 287.71 254.87
  C 283.41 251.91 279.28 248.86 274.05 248.06
  Q 273.49 247.97 273.49 247.40
  C 273.44 236.96 275.19 226.64 276.08 216.30
  C 276.65 209.50 276.54 202.65 276.40 195.79
  Q 276.28 189.99 277.28 182.28
  C 279.15 167.87 278.94 153.62 278.67 137.92
  C 278.57 132.03 276.91 127.04 270.58 125.28
  Q 268.47 124.69 266.23 125.66
  Q 260.71 128.04 260.46 134.67
  Q 259.94 148.79 258.99 163.26
  C 258.72 167.41 257.59 171.29 257.36 175.42
  Q 256.84 185.12 253.30 193.29
  A 0.49 0.48 -49.3 0 1 252.45 193.36
  Q 248.84 187.70 242.47 186.10
  C 234.15 184.01 228.83 188.99 227.44 196.78
  Q 227.30 197.56 226.65 197.10
  C 225.68 196.43 224.61 195.74 223.38 195.76
  C 215.34 195.84 210.36 199.29 209.81 207.70
  A 1.25 1.23 -17.8 0 1 209.33 208.61
  Q 207.81 209.78 207.32 211.49
  C 206.94 212.83 206.97 214.18 205.73 215.11
  Q 202.78 217.30 200.21 219.60
  C 198.68 220.97 198.47 223.20 197.62 225.00
  Q 196.92 226.52 196.96 228.20
  Q 197.24 237.87 199.43 246.86
  Q 199.60 247.54 198.89 247.50
  Z
  M 440.48 256.83
  Q 440.38 243.45 441.68 228.24
  Q 442.28 221.28 438.01 217.92
  C 433.08 214.04 424.07 214.57 418.44 216.33
  A 1.18 1.18 0.0 0 0 417.62 217.58
  C 417.94 220.44 418.55 223.27 418.68 226.15
  Q 419.25 238.27 419.38 250.16
  Q 419.65 275.65 419.83 308.69
  Q 419.85 310.73 420.92 312.26
  C 422.85 315.01 426.62 319.44 430.32 318.94
  Q 439.86 317.66 440.14 307.91
  Q 440.43 297.81 441.00 276.67
  C 441.05 274.72 441.43 272.20 443.07 270.85
  C 447.83 266.91 457.88 263.92 459.77 272.64
  Q 460.73 277.07 460.72 282.34
  Q 460.67 295.45 461.02 307.81
  C 461.10 310.46 461.66 314.19 464.01 315.98
  Q 468.28 319.23 471.98 318.92
  Q 481.11 318.14 481.28 309.02
  Q 481.60 291.26 481.44 273.50
  C 481.40 269.13 481.31 262.42 478.94 258.81
  C 476.39 254.93 472.24 249.59 467.49 248.80
  Q 463.24 248.08 458.04 248.53
  C 451.31 249.10 446.07 252.44 441.13 257.11
  Q 440.49 257.71 440.48 256.83
  Z
  M 50.81 296.06
  Q 47.14 292.05 46.79 287.33
  Q 44.65 258.07 48.02 226.75
  Q 48.16 225.47 47.82 224.18
  A 1.33 1.31 -81.2 0 0 47.25 223.39
  Q 45.30 222.19 42.93 221.64
  Q 32.75 219.29 22.82 222.75
  A 0.55 0.53 -15.7 0 0 22.47 223.36
  Q 23.70 229.37 23.72 236.35
  Q 23.78 261.35 24.07 285.61
  Q 24.17 294.55 28.64 303.25
  Q 34.82 315.32 49.07 317.66
  Q 64.53 320.21 78.83 316.58
  C 97.20 311.91 101.21 296.13 101.89 279.15
  Q 102.61 261.27 103.53 240.12
  Q 103.79 234.15 104.49 228.72
  Q 104.79 226.45 103.84 225.22
  C 101.93 222.76 98.83 221.55 95.81 221.26
  C 90.56 220.75 84.91 220.75 79.88 221.56
  A 0.93 0.93 0.0 0 0 79.11 222.64
  Q 80.22 229.38 80.41 236.25
  Q 80.99 256.97 80.23 276.76
  Q 80.01 282.52 79.02 287.94
  C 78.05 293.27 73.90 299.68 68.08 300.30
  C 62.16 300.93 54.98 300.61 50.81 296.06
  Z
  M 383.44 310.51
  Q 385.63 315.59 390.00 316.98
  C 397.04 319.22 404.49 317.84 408.27 311.11
  Q 409.75 308.47 410.73 305.60
  A 0.33 0.33 0.0 0 0 410.33 305.17
  C 407.83 305.83 403.71 306.70 403.32 302.83
  Q 402.93 299.01 402.98 294.88
  Q 403.12 283.88 403.35 272.23
  C 403.80 249.61 386.50 245.46 367.69 247.68
  Q 358.01 248.82 348.92 255.13
  C 346.59 256.75 343.32 259.89 345.13 262.89
  C 347.57 266.95 354.28 272.36 358.99 268.39
  Q 366.98 261.64 377.46 263.44
  C 382.05 264.23 382.21 268.93 381.85 272.94
  Q 381.79 273.62 381.12 273.55
  C 371.06 272.44 361.86 273.38 352.62 277.94
  C 347.53 280.46 342.03 285.72 341.71 291.78
  Q 341.32 299.24 342.10 303.19
  Q 343.08 308.09 348.09 313.54
  C 349.86 315.47 353.16 316.84 355.79 317.33
  Q 368.40 319.69 377.51 314.33
  C 379.34 313.25 380.95 311.72 382.52 310.31
  Q 383.12 309.77 383.44 310.51
  Z"
/>
<path fill="#000000" d="
  M 199.43 246.86
  Q 197.24 237.87 196.96 228.20
  Q 196.92 226.52 197.62 225.00
  C 198.47 223.20 198.68 220.97 200.21 219.60
  Q 202.78 217.30 205.73 215.11
  C 206.97 214.18 206.94 212.83 207.32 211.49
  Q 207.81 209.78 209.33 208.61
  A 1.25 1.23 -17.8 0 0 209.81 207.70
  C 210.36 199.29 215.34 195.84 223.38 195.76
  C 224.61 195.74 225.68 196.43 226.65 197.10
  Q 227.30 197.56 227.44 196.78
  C 228.83 188.99 234.15 184.01 242.47 186.10
  Q 248.84 187.70 252.45 193.36
  A 0.49 0.48 -49.3 0 0 253.30 193.29
  Q 256.84 185.12 257.36 175.42
  C 257.59 171.29 258.72 167.41 258.99 163.26
  Q 259.94 148.79 260.46 134.67
  Q 260.71 128.04 266.23 125.66
  Q 268.47 124.69 270.58 125.28
  C 276.91 127.04 278.57 132.03 278.67 137.92
  C 278.94 153.62 279.15 167.87 277.28 182.28
  Q 276.28 189.99 276.40 195.79
  C 276.54 202.65 276.65 209.50 276.08 216.30
  C 275.19 226.64 273.44 236.96 273.49 247.40
  Q 273.49 247.97 274.05 248.06
  C 279.28 248.86 283.41 251.91 287.71 254.87
  A 0.95 0.94 -45.3 0 0 288.79 254.86
  C 298.32 248.14 311.70 244.35 322.36 250.62
  C 327.51 253.66 330.04 259.96 330.38 265.78
  C 331.10 278.18 330.71 295.01 331.56 309.97
  C 331.77 313.53 327.86 317.20 325.11 318.97
  C 319.46 322.62 312.67 318.68 310.32 313.11
  Q 309.44 311.02 309.37 306.31
  Q 309.18 292.88 309.24 279.00
  Q 309.25 276.12 308.95 273.27
  C 308.14 265.50 299.16 264.65 294.08 268.31
  C 291.95 269.84 291.48 272.00 291.42 274.45
  Q 291.06 290.92 290.95 307.75
  C 290.91 314.97 285.01 322.39 277.07 319.03
  C 271.63 316.73 269.59 312.12 269.80 306.38
  Q 269.82 305.88 269.38 305.64
  Q 269.17 305.52 269.01 305.62
  Q 268.45 305.98 268.46 305.32
  Q 268.55 296.59 268.45 287.49
  Q 268.41 284.30 268.78 281.03
  C 269.43 275.21 270.79 266.36 262.03 266.60
  C 258.97 266.68 253.12 267.42 252.85 271.52
  Q 252.55 276.05 252.31 280.29
  Q 252.28 280.80 252.79 280.88
  Q 253.36 280.96 253.73 281.40
  Q 254.18 281.92 253.55 282.19
  Q 253.28 282.31 253.00 282.22
  Q 252.23 281.96 252.21 282.78
  Q 251.96 294.22 251.75 305.44
  C 251.69 308.55 251.77 312.43 250.15 315.02
  C 247.78 318.82 242.98 321.94 238.53 319.27
  Q 230.61 314.51 230.72 305.28
  C 230.95 286.66 232.14 267.65 228.23 250.02
  A 0.91 0.90 -11.9 0 1 228.94 248.94
  L 235.46 247.66
  Q 235.99 247.55 236.17 247.04
  L 236.86 245.06
  Q 237.11 244.31 236.35 244.51
  Q 230.36 246.08 226.13 241.72
  Q 225.71 241.29 225.46 241.83
  Q 223.09 246.81 216.00 246.24
  Q 214.19 246.09 213.33 244.69
  Q 211.41 241.54 209.59 238.80
  Q 209.24 238.29 208.76 238.67
  Q 206.01 240.83 202.33 240.96
  Q 202.11 240.97 202.10 240.75
  L 202.08 240.46
  A 0.45 0.44 -4.4 0 1 202.50 239.98
  Q 205.44 239.78 207.79 237.97
  Q 208.64 237.31 208.04 236.41
  L 205.56 232.73
  Q 204.83 231.64 203.85 232.52
  Q 202.76 233.50 201.43 233.43
  Q 200.16 233.37 201.18 232.60
  Q 202.29 231.77 203.57 231.28
  A 0.36 0.36 0.0 0 0 203.56 230.60
  L 200.46 229.53
  A 0.74 0.74 0.0 0 0 199.48 230.26
  Q 199.92 239.19 201.59 247.45
  Q 201.70 247.99 202.25 248.10
  Q 215.97 250.98 216.86 266.20
  Q 217.45 276.37 217.22 287.05
  A 1.81 1.81 0.0 0 0 218.82 288.89
  Q 224.50 289.55 229.34 288.04
  A 0.34 0.33 65.3 0 1 229.73 288.19
  L 229.86 288.41
  A 0.54 0.54 0.0 0 1 229.58 289.20
  Q 225.03 290.78 219.28 289.84
  Q 218.36 289.69 218.41 290.62
  Q 218.81 298.42 218.95 306.60
  C 218.98 308.62 217.88 312.42 216.72 314.06
  Q 213.65 318.35 209.74 319.89
  C 204.61 321.93 198.55 317.69 196.80 312.98
  Q 195.89 310.56 195.87 307.14
  Q 195.79 292.45 195.76 278.43
  C 195.75 273.37 195.61 267.75 189.44 266.51
  C 184.20 265.46 178.12 267.76 177.95 273.91
  Q 177.54 289.09 177.59 304.80
  C 177.60 310.61 176.61 316.23 171.16 318.89
  C 164.60 322.09 157.16 316.49 156.50 309.76
  Q 156.04 305.00 156.06 300.20
  Q 156.12 286.50 155.73 273.80
  Q 155.52 266.67 149.02 266.60
  C 146.07 266.57 139.72 267.30 139.38 271.33
  C 138.30 283.86 138.38 296.70 138.17 309.20
  Q 138.08 314.85 133.47 318.44
  C 130.22 320.97 126.84 320.77 123.65 318.42
  Q 117.04 313.57 117.19 305.03
  C 117.52 286.47 118.62 267.77 114.77 250.15
  Q 114.59 249.35 115.37 249.10
  C 121.07 247.22 126.74 247.49 132.49 248.91
  Q 136.45 249.89 139.03 253.02
  Q 139.46 253.53 139.98 253.12
  Q 147.66 247.09 159.36 247.98
  C 165.05 248.42 169.60 251.52 174.03 254.80
  A 1.14 1.14 0.0 0 0 175.34 254.82
  Q 187.11 246.73 198.89 247.50
  Q 199.60 247.54 199.43 246.86
  Z
  M 238.60 225.30
  Q 238.67 226.56 237.46 227.22
  Q 236.69 227.63 237.36 228.19
  Q 240.12 230.47 242.98 232.24
  Q 243.63 232.65 243.78 233.04
  Q 244.01 233.69 243.39 234.28
  A 1.31 1.31 0.0 0 0 243.28 236.04
  Q 249.03 243.16 258.04 246.26
  A 0.44 0.44 0.0 0 1 258.31 246.81
  L 258.21 247.13
  Q 258.14 247.34 257.92 247.27
  C 252.00 245.26 247.00 241.97 242.83 237.44
  Q 242.23 236.80 241.93 237.62
  L 238.42 247.17
  Q 238.22 247.71 238.80 247.74
  Q 244.75 248.00 250.11 250.62
  Q 250.21 250.67 250.13 250.60
  L 243.63 245.03
  A 0.39 0.39 0.0 0 1 243.59 244.49
  L 243.76 244.28
  Q 244.00 243.99 244.29 244.23
  L 253.85 251.94
  A 1.07 1.07 0.0 0 0 255.10 252.00
  Q 262.37 247.28 271.06 248.01
  Q 271.64 248.06 271.62 247.48
  C 271.55 245.65 271.18 243.65 271.36 241.85
  Q 272.83 227.01 274.08 213.20
  C 274.78 205.47 274.01 197.58 274.53 190.04
  Q 275.19 180.44 275.94 170.20
  Q 277.02 155.43 275.80 134.06
  C 275.66 131.70 274.92 129.61 272.88 128.31
  Q 267.88 125.11 264.49 129.50
  Q 262.67 131.86 262.64 133.75
  C 262.51 141.96 262.44 149.75 261.62 157.86
  Q 260.33 170.64 258.97 181.17
  Q 258.25 186.72 255.20 195.04
  Q 255.02 195.51 254.61 195.80
  L 253.92 196.26
  Q 253.48 196.56 253.50 197.09
  Q 253.69 206.62 254.05 214.20
  Q 254.14 215.92 255.82 216.67
  Q 256.31 216.89 256.67 216.49
  Q 257.64 215.41 259.03 214.87
  Q 259.08 214.85 259.11 214.89
  L 259.42 215.29
  Q 259.59 215.49 259.39 215.67
  L 257.45 217.38
  Q 256.96 217.80 257.45 218.23
  L 261.82 222.01
  A 1.60 1.59 48.7 0 0 263.75 222.14
  L 269.44 218.35
  Q 269.85 218.08 270.10 218.50
  L 270.23 218.72
  Q 270.43 219.08 270.10 219.31
  L 264.97 222.94
  Q 264.31 223.41 265.02 223.80
  L 268.19 225.53
  Q 268.97 225.96 268.59 226.77
  L 268.42 227.15
  A 1.04 1.04 0.0 0 1 266.87 227.55
  C 264.25 225.68 261.29 224.44 258.87 222.23
  Q 253.70 217.54 248.60 212.86
  Q 245.09 209.62 240.50 209.39
  Q 233.57 209.04 226.29 209.00
  Q 225.65 208.99 225.68 209.63
  C 225.91 214.37 226.02 218.41 220.31 219.42
  Q 217.24 219.97 214.09 219.21
  C 212.78 218.90 211.75 217.98 210.48 217.60
  Q 208.80 217.09 210.23 218.12
  Q 212.56 219.79 214.91 221.60
  C 216.62 222.93 218.94 222.39 220.94 223.38
  Q 225.03 225.39 231.94 226.22
  C 234.04 226.48 235.97 225.38 237.96 224.84
  A 0.51 0.50 -9.2 0 1 238.60 225.30
  Z
  M 238.24 188.06
  C 233.09 188.11 230.77 192.51 229.27 197.28
  Q 228.90 198.46 229.28 199.66
  Q 230.30 202.93 230.59 206.18
  Q 230.65 206.86 231.33 206.86
  Q 236.23 206.89 241.17 207.06
  C 245.04 207.20 248.19 209.98 251.07 212.22
  Q 251.80 212.77 251.75 211.86
  Q 251.48 206.20 251.39 199.46
  Q 251.34 196.24 250.21 193.99
  C 248.13 189.89 242.63 188.01 238.24 188.06
  Z
  M 213.38 206.99
  L 228.12 206.50
  A 0.53 0.53 0.0 0 0 228.63 205.96
  L 228.60 205.11
  A 7.83 7.62 -1.9 0 0 220.52 197.75
  L 220.38 197.75
  A 7.83 7.62 -1.9 0 0 212.81 205.63
  L 212.84 206.48
  A 0.53 0.53 0.0 0 0 213.38 206.99
  Z
  M 222.48 208.97
  L 211.57 209.27
  A 2.24 2.24 0.0 0 0 209.39 211.58
  L 209.42 212.59
  A 6.74 6.39 -1.6 0 0 216.33 218.78
  L 218.25 218.73
  A 6.74 6.39 -1.6 0 0 224.81 212.16
  L 224.78 211.15
  A 2.24 2.24 0.0 0 0 222.48 208.97
  Z
  M 200.64 224.71
  C 201.46 224.40 202.64 224.28 203.22 225.14
  Q 208.62 233.27 213.82 241.37
  Q 214.52 242.47 215.37 243.45
  Q 216.81 245.12 216.83 242.91
  C 216.85 239.51 221.26 238.16 223.84 237.95
  Q 224.78 237.88 224.55 236.97
  Q 223.13 231.33 220.88 227.07
  Q 219.44 224.36 216.04 224.52
  Q 215.51 224.54 215.05 224.28
  Q 210.23 221.44 207.28 217.56
  Q 206.99 217.17 206.57 217.42
  Q 202.52 219.89 200.38 223.66
  Q 200.18 224.00 200.29 224.38
  Q 200.32 224.51 200.39 224.63
  A 0.21 0.21 0.0 0 0 200.64 224.71
  Z
  M 199.93 225.75
  L 199.69 226.42
  Q 199.47 227.00 199.98 227.36
  Q 200.54 227.77 201.27 227.86
  Q 202.32 227.98 201.84 227.04
  Q 201.45 226.29 200.84 225.58
  Q 200.24 224.89 199.93 225.75
  Z
  M 233.12 233.58
  C 235.33 233.35 237.85 232.95 239.41 234.92
  Q 241.09 237.04 240.69 234.37
  Q 240.52 233.17 239.27 232.16
  Q 234.63 228.42 230.22 228.08
  C 228.03 227.91 225.87 227.40 223.77 226.72
  Q 222.40 226.28 223.22 227.46
  Q 226.69 232.49 226.42 238.45
  Q 226.41 238.50 226.44 238.54
  Q 227.56 240.13 229.72 242.03
  A 0.17 0.16 -79.1 0 0 229.98 241.85
  C 228.97 238.59 229.00 234.01 233.12 233.58
  Z
  M 238.2312 235.5855
  A 4.54 4.07 -41.1 0 0 232.1345 235.5030
  A 4.54 4.07 -41.1 0 0 231.3888 241.5545
  A 4.54 4.07 -41.1 0 0 237.4855 241.6370
  A 4.54 4.07 -41.1 0 0 238.2312 235.5855
  Z
  M 223.5760 239.8211
  A 3.28 1.63 -34.1 0 0 219.9462 240.3103
  A 3.28 1.63 -34.1 0 0 218.1440 243.4989
  A 3.28 1.63 -34.1 0 0 221.7738 243.0097
  A 3.28 1.63 -34.1 0 0 223.5760 239.8211
  Z
  M 251.86 252.32
  Q 252.26 253.07 253.04 253.24
  Q 253.17 253.27 253.23 253.16
  L 253.39 252.87
  Q 253.54 252.59 253.25 252.46
  Q 252.13 251.95 251.29 251.31
  Q 249.79 250.15 251.05 251.56
  Q 251.23 251.75 251.45 251.88
  Q 251.71 252.04 251.86 252.32
  Z"
/>
<path fill="#ffffff" d="
  M 237.96 224.84
  C 235.97 225.38 234.04 226.48 231.94 226.22
  Q 225.03 225.39 220.94 223.38
  C 218.94 222.39 216.62 222.93 214.91 221.60
  Q 212.56 219.79 210.23 218.12
  Q 208.80 217.09 210.48 217.60
  C 211.75 217.98 212.78 218.90 214.09 219.21
  Q 217.24 219.97 220.31 219.42
  C 226.02 218.41 225.91 214.37 225.68 209.63
  Q 225.65 208.99 226.29 209.00
  Q 233.57 209.04 240.50 209.39
  Q 245.09 209.62 248.60 212.86
  Q 253.70 217.54 258.87 222.23
  C 261.29 224.44 264.25 225.68 266.87 227.55
  A 1.04 1.04 0.0 0 0 268.42 227.15
  L 268.59 226.77
  Q 268.97 225.96 268.19 225.53
  L 265.02 223.80
  Q 264.31 223.41 264.97 222.94
  L 270.10 219.31
  Q 270.43 219.08 270.23 218.72
  L 270.10 218.50
  Q 269.85 218.08 269.44 218.35
  L 263.75 222.14
  A 1.60 1.59 48.7 0 1 261.82 222.01
  L 257.45 218.23
  Q 256.96 217.80 257.45 217.38
  L 259.39 215.67
  Q 259.59 215.49 259.42 215.29
  L 259.11 214.89
  Q 259.08 214.85 259.03 214.87
  Q 257.64 215.41 256.67 216.49
  Q 256.31 216.89 255.82 216.67
  Q 254.14 215.92 254.05 214.20
  Q 253.69 206.62 253.50 197.09
  Q 253.48 196.56 253.92 196.26
  L 254.61 195.80
  Q 255.02 195.51 255.20 195.04
  Q 258.25 186.72 258.97 181.17
  Q 260.33 170.64 261.62 157.86
  C 262.44 149.75 262.51 141.96 262.64 133.75
  Q 262.67 131.86 264.49 129.50
  Q 267.88 125.11 272.88 128.31
  C 274.92 129.61 275.66 131.70 275.80 134.06
  Q 277.02 155.43 275.94 170.20
  Q 275.19 180.44 274.53 190.04
  C 274.01 197.58 274.78 205.47 274.08 213.20
  Q 272.83 227.01 271.36 241.85
  C 271.18 243.65 271.55 245.65 271.62 247.48
  Q 271.64 248.06 271.06 248.01
  Q 262.37 247.28 255.10 252.00
  A 1.07 1.07 0.0 0 1 253.85 251.94
  L 244.29 244.23
  Q 244.00 243.99 243.76 244.28
  L 243.59 244.49
  A 0.39 0.39 0.0 0 0 243.63 245.03
  L 250.13 250.60
  Q 250.21 250.67 250.11 250.62
  Q 244.75 248.00 238.80 247.74
  Q 238.22 247.71 238.42 247.17
  L 241.93 237.62
  Q 242.23 236.80 242.83 237.44
  C 247.00 241.97 252.00 245.26 257.92 247.27
  Q 258.14 247.34 258.21 247.13
  L 258.31 246.81
  A 0.44 0.44 0.0 0 0 258.04 246.26
  Q 249.03 243.16 243.28 236.04
  A 1.31 1.31 0.0 0 1 243.39 234.28
  Q 244.01 233.69 243.78 233.04
  Q 243.63 232.65 242.98 232.24
  Q 240.12 230.47 237.36 228.19
  Q 236.69 227.63 237.46 227.22
  Q 238.67 226.56 238.60 225.30
  A 0.51 0.50 -9.2 0 0 237.96 224.84
  Z
  M 273.3976 150.6127
  A 0.60 0.60 0.0 0 0 272.8387 149.9743
  L 266.4328 149.5488
  A 0.60 0.60 0.0 0 0 265.7943 150.1077
  L 265.7824 150.2873
  A 0.60 0.60 0.0 0 0 266.3413 150.9257
  L 272.7472 151.3512
  A 0.60 0.60 0.0 0 0 273.3857 150.7923
  L 273.3976 150.6127
  Z
  M 271.62 168.42
  Q 267.99 166.74 264.10 167.53
  Q 263.77 167.59 263.84 167.92
  L 263.90 168.19
  Q 263.98 168.53 264.32 168.48
  Q 268.17 167.83 271.31 169.48
  Q 271.62 169.64 271.76 169.31
  L 271.86 169.05
  A 0.49 0.49 0.0 0 0 271.62 168.42
  Z
  M 269.51 170.94
  L 264.55 170.22
  A 0.23 0.23 0.0 0 0 264.29 170.41
  L 264.27 170.55
  A 1.38 1.03 8.2 0 0 265.48 171.77
  L 268.18 172.16
  A 1.38 1.03 8.2 0 0 269.69 171.33
  L 269.71 171.20
  A 0.23 0.23 0.0 0 0 269.51 170.94
  Z"
/>
<rect fill="#000000" x="-3.81" y="-0.69" transform="translate(269.59,150.45) rotate(3.8)" width="7.62" height="1.38" rx="0.60"/>
<path fill="#000000" d="
  M 271.62 168.42
  A 0.49 0.49 0.0 0 1 271.86 169.05
  L 271.76 169.31
  Q 271.62 169.64 271.31 169.48
  Q 268.17 167.83 264.32 168.48
  Q 263.98 168.53 263.90 168.19
  L 263.84 167.92
  Q 263.77 167.59 264.10 167.53
  Q 267.99 166.74 271.62 168.42
  Z"
/>
<path fill="#000000" d="
  M 269.51 170.94
  A 0.23 0.23 0.0 0 1 269.71 171.20
  L 269.69 171.33
  A 1.38 1.03 8.2 0 1 268.18 172.16
  L 265.48 171.77
  A 1.38 1.03 8.2 0 1 264.27 170.55
  L 264.29 170.41
  A 0.23 0.23 0.0 0 1 264.55 170.22
  L 269.51 170.94
  Z"
/>
<path fill="#ffffff" d="
  M 229.27 197.28
  C 230.77 192.51 233.09 188.11 238.24 188.06
  C 242.63 188.01 248.13 189.89 250.21 193.99
  Q 251.34 196.24 251.39 199.46
  Q 251.48 206.20 251.75 211.86
  Q 251.80 212.77 251.07 212.22
  C 248.19 209.98 245.04 207.20 241.17 207.06
  Q 236.23 206.89 231.33 206.86
  Q 230.65 206.86 230.59 206.18
  Q 230.30 202.93 229.28 199.66
  Q 228.90 198.46 229.27 197.28
  Z
  M 236.32 193.19
  Q 238.64 191.91 241.46 191.96
  Q 241.90 191.97 241.92 191.54
  L 241.94 191.25
  Q 241.94 191.09 241.78 191.07
  Q 238.65 190.81 236.04 191.98
  A 0.62 0.61 -20.3 0 0 235.70 192.71
  L 235.78 192.97
  Q 235.91 193.42 236.32 193.19
  Z"
/>
<path fill="#000000" d="
  M 236.32 193.19
  Q 235.91 193.42 235.78 192.97
  L 235.70 192.71
  A 0.62 0.61 -20.3 0 1 236.04 191.98
  Q 238.65 190.81 241.78 191.07
  Q 241.94 191.09 241.94 191.25
  L 241.92 191.54
  Q 241.90 191.97 241.46 191.96
  Q 238.64 191.91 236.32 193.19
  Z"
/>
<path fill="#ffffff" d="
  M 213.38 206.99
  A 0.53 0.53 0.0 0 1 212.84 206.48
  L 212.81 205.63
  A 7.83 7.62 -1.9 0 1 220.38 197.75
  L 220.52 197.75
  A 7.83 7.62 -1.9 0 1 228.60 205.11
  L 228.63 205.96
  A 0.53 0.53 0.0 0 1 228.12 206.50
  L 213.38 206.99
  Z
  M 222.0439 200.4874
  A 2.02 0.51 -14.7 0 0 219.9606 200.5067
  A 2.02 0.51 -14.7 0 0 218.1361 201.5126
  A 2.02 0.51 -14.7 0 0 220.2194 201.4933
  A 2.02 0.51 -14.7 0 0 222.0439 200.4874
  Z"
/>
<ellipse fill="#000000" cx="0.00" cy="0.00" transform="translate(220.09,201.00) rotate(-14.7)" rx="2.02" ry="0.51"/>
<path fill="#ffffff" d="
  M 222.48 208.97
  A 2.24 2.24 0.0 0 1 224.78 211.15
  L 224.81 212.16
  A 6.74 6.39 -1.6 0 1 218.25 218.73
  L 216.33 218.78
  A 6.74 6.39 -1.6 0 1 209.42 212.59
  L 209.39 211.58
  A 2.24 2.24 0.0 0 1 211.57 209.27
  L 222.48 208.97
  Z"
/>
<path fill="#000000" d="
  M 441.13 257.11
  C 446.07 252.44 451.31 249.10 458.04 248.53
  Q 463.24 248.08 467.49 248.80
  C 472.24 249.59 476.39 254.93 478.94 258.81
  C 481.31 262.42 481.40 269.13 481.44 273.50
  Q 481.60 291.26 481.28 309.02
  Q 481.11 318.14 471.98 318.92
  Q 468.28 319.23 464.01 315.98
  C 461.66 314.19 461.10 310.46 461.02 307.81
  Q 460.67 295.45 460.72 282.34
  Q 460.73 277.07 459.77 272.64
  C 457.88 263.92 447.83 266.91 443.07 270.85
  C 441.43 272.20 441.05 274.72 441.00 276.67
  Q 440.43 297.81 440.14 307.91
  Q 439.86 317.66 430.32 318.94
  C 426.62 319.44 422.85 315.01 420.92 312.26
  Q 419.85 310.73 419.83 308.69
  Q 419.65 275.65 419.38 250.16
  Q 419.25 238.27 418.68 226.15
  C 418.55 223.27 417.94 220.44 417.62 217.58
  A 1.18 1.18 0.0 0 1 418.44 216.33
  C 424.07 214.57 433.08 214.04 438.01 217.92
  Q 442.28 221.28 441.68 228.24
  Q 440.38 243.45 440.48 256.83
  Q 440.49 257.71 441.13 257.11
  Z"
/>
<path fill="#ffffff" d="
  M 200.64 224.71
  A 0.21 0.21 0.0 0 1 200.39 224.63
  Q 200.32 224.51 200.29 224.38
  Q 200.18 224.00 200.38 223.66
  Q 202.52 219.89 206.57 217.42
  Q 206.99 217.17 207.28 217.56
  Q 210.23 221.44 215.05 224.28
  Q 215.51 224.54 216.04 224.52
  Q 219.44 224.36 220.88 227.07
  Q 223.13 231.33 224.55 236.97
  Q 224.78 237.88 223.84 237.95
  C 221.26 238.16 216.85 239.51 216.83 242.91
  Q 216.81 245.12 215.37 243.45
  Q 214.52 242.47 213.82 241.37
  Q 208.62 233.27 203.22 225.14
  C 202.64 224.28 201.46 224.40 200.64 224.71
  Z"
/>
<path fill="#000000" d="
  M 50.81 296.06
  C 54.98 300.61 62.16 300.93 68.08 300.30
  C 73.90 299.68 78.05 293.27 79.02 287.94
  Q 80.01 282.52 80.23 276.76
  Q 80.99 256.97 80.41 236.25
  Q 80.22 229.38 79.11 222.64
  A 0.93 0.93 0.0 0 1 79.88 221.56
  C 84.91 220.75 90.56 220.75 95.81 221.26
  C 98.83 221.55 101.93 222.76 103.84 225.22
  Q 104.79 226.45 104.49 228.72
  Q 103.79 234.15 103.53 240.12
  Q 102.61 261.27 101.89 279.15
  C 101.21 296.13 97.20 311.91 78.83 316.58
  Q 64.53 320.21 49.07 317.66
  Q 34.82 315.32 28.64 303.25
  Q 24.17 294.55 24.07 285.61
  Q 23.78 261.35 23.72 236.35
  Q 23.70 229.37 22.47 223.36
  A 0.55 0.53 -15.7 0 1 22.82 222.75
  Q 32.75 219.29 42.93 221.64
  Q 45.30 222.19 47.25 223.39
  A 1.33 1.31 -81.2 0 1 47.82 224.18
  Q 48.16 225.47 48.02 226.75
  Q 44.65 258.07 46.79 287.33
  Q 47.14 292.05 50.81 296.06
  Z"
/>
<path fill="#ffffff" d="
  M 200.84 225.58
  Q 201.45 226.29 201.84 227.04
  Q 202.32 227.98 201.27 227.86
  Q 200.54 227.77 199.98 227.36
  Q 199.47 227.00 199.69 226.42
  L 199.93 225.75
  Q 200.24 224.89 200.84 225.58
  Z"
/>
<path fill="#ffffff" d="
  M 233.12 233.58
  C 229.00 234.01 228.97 238.59 229.98 241.85
  A 0.17 0.16 -79.1 0 1 229.72 242.03
  Q 227.56 240.13 226.44 238.54
  Q 226.41 238.50 226.42 238.45
  Q 226.69 232.49 223.22 227.46
  Q 222.40 226.28 223.77 226.72
  C 225.87 227.40 228.03 227.91 230.22 228.08
  Q 234.63 228.42 239.27 232.16
  Q 240.52 233.17 240.69 234.37
  Q 241.09 237.04 239.41 234.92
  C 237.85 232.95 235.33 233.35 233.12 233.58
  Z"
/>
<ellipse fill="#ffffff" cx="0.00" cy="0.00" transform="translate(234.81,238.57) rotate(-41.1)" rx="4.54" ry="4.07"/>
<ellipse fill="#ffffff" cx="0.00" cy="0.00" transform="translate(220.86,241.66) rotate(-34.1)" rx="3.28" ry="1.63"/>
<path fill="#000000" d="
  M 382.52 310.31
  C 380.95 311.72 379.34 313.25 377.51 314.33
  Q 368.40 319.69 355.79 317.33
  C 353.16 316.84 349.86 315.47 348.09 313.54
  Q 343.08 308.09 342.10 303.19
  Q 341.32 299.24 341.71 291.78
  C 342.03 285.72 347.53 280.46 352.62 277.94
  C 361.86 273.38 371.06 272.44 381.12 273.55
  Q 381.79 273.62 381.85 272.94
  C 382.21 268.93 382.05 264.23 377.46 263.44
  Q 366.98 261.64 358.99 268.39
  C 354.28 272.36 347.57 266.95 345.13 262.89
  C 343.32 259.89 346.59 256.75 348.92 255.13
  Q 358.01 248.82 367.69 247.68
  C 386.50 245.46 403.80 249.61 403.35 272.23
  Q 403.12 283.88 402.98 294.88
  Q 402.93 299.01 403.32 302.83
  C 403.71 306.70 407.83 305.83 410.33 305.17
  A 0.33 0.33 0.0 0 1 410.73 305.60
  Q 409.75 308.47 408.27 311.11
  C 404.49 317.84 397.04 319.22 390.00 316.98
  Q 385.63 315.59 383.44 310.51
  Q 383.12 309.77 382.52 310.31
  Z
  M 365.62 303.24
  C 370.60 304.19 375.86 302.77 379.44 299.28
  Q 380.94 297.83 381.06 295.11
  Q 381.27 290.42 381.54 286.21
  Q 381.58 285.63 381.01 285.58
  Q 372.76 284.77 366.34 287.06
  C 360.71 289.06 358.88 294.74 361.34 299.94
  Q 362.64 302.67 365.62 303.24
  Z"
/>
<path fill="#ffffff" d="
  M 251.45 251.88
  Q 251.23 251.75 251.05 251.56
  Q 249.79 250.15 251.29 251.31
  Q 252.13 251.95 253.25 252.46
  Q 253.54 252.59 253.39 252.87
  L 253.23 253.16
  Q 253.17 253.27 253.04 253.24
  Q 252.26 253.07 251.86 252.32
  Q 251.71 252.04 251.45 251.88
  Z"
/>
<path fill="#ffffff" d="
  M 379.44 299.28
  C 375.86 302.77 370.60 304.19 365.62 303.24
  Q 362.64 302.67 361.34 299.94
  C 358.88 294.74 360.71 289.06 366.34 287.06
  Q 372.76 284.77 381.01 285.58
  Q 381.58 285.63 381.54 286.21
  Q 381.27 290.42 381.06 295.11
  Q 380.94 297.83 379.44 299.28
  Z"
/>
</svg>
