<svg width="101" height="51" viewBox="0 0 101 51" fill="none" xmlns="http://www.w3.org/2000/svg">
<path d="M13.5323 39.5941C14.8759 39.5102 15.7624 38.3321 15.9563 37.1522C16.1001 36.2737 16.1832 35.3361 16.2056 34.3394C16.2557 32.0828 16.259 29.9242 16.2155 27.8639C16.1957 26.9245 16.1053 26.0049 15.9444 25.1052C15.9399 25.0813 15.9406 25.0568 15.9463 25.0332C15.9521 25.0095 15.9628 24.9871 15.9779 24.9674C15.993 24.9476 16.0122 24.9308 16.0343 24.918C16.0564 24.9052 16.081 24.8966 16.1066 24.8927C16.7517 24.797 17.4614 24.7591 18.2357 24.779C19.1459 24.8014 20.159 24.8181 20.8081 25.5302C20.9532 25.6892 21.0066 25.9285 20.9683 26.2478C20.8588 27.1351 20.7823 28.0863 20.7388 29.1016C20.6451 31.2887 20.5462 33.5131 20.442 35.7747C20.2956 38.9398 19.4507 41.7805 15.796 42.6286C14.1167 43.0201 12.3319 43.1021 10.4416 42.8747C8.59349 42.6529 6.97491 41.911 6.07855 40.3042C5.40184 39.0926 5.05886 37.9394 5.04963 36.8447C5.02588 33.8001 5.0028 30.7307 4.98037 27.6365C4.9751 26.8486 4.89727 26.0428 4.74688 25.2189C4.74301 25.197 4.74722 25.1746 4.75879 25.1556C4.77035 25.1365 4.78854 25.122 4.8102 25.1145C6.20123 24.6448 8.28481 24.5013 9.64221 25.2263C9.66662 25.2393 9.68811 25.2569 9.70543 25.278C9.72275 25.2991 9.73556 25.3234 9.74312 25.3494C9.8038 25.5656 9.81831 25.7967 9.78665 26.0428C9.40938 28.9755 9.30055 32.3754 9.46017 36.2426C9.56504 38.7925 10.8492 39.7637 13.5323 39.5941Z" fill="white"/>
<path d="M43.4439 40.969L43.4122 41.3642C43.4096 41.4035 43.3981 41.4422 43.3786 41.4779C43.0804 42.0197 42.6557 42.4459 42.1043 42.7566C41.0081 43.3736 39.7041 42.6652 39.2371 41.6345C39.125 41.3834 39.0643 40.9895 39.0551 40.4527C39.0221 38.447 39.0135 36.7365 39.0294 35.3211C39.0333 34.9818 39.0155 34.6202 38.9759 34.2362C38.877 33.2726 38.0657 32.7954 37.0645 32.9203C36.1306 33.0371 35.624 33.4291 35.5449 34.0964C35.4908 34.5612 35.4631 35.0508 35.4618 35.5653C35.4604 37.2454 35.44 38.9565 35.4004 40.6987C35.3846 41.3984 35.126 41.97 34.6248 42.4136C33.6196 43.3009 32.092 42.8218 31.5004 41.7556C31.1145 41.0603 31.1699 39.845 31.1719 39.0286C31.1785 37.356 31.1554 35.7386 31.1027 34.1766C31.075 33.3918 30.517 32.9165 29.6879 32.9613C29.0666 32.9948 27.9565 33.0917 27.8675 33.8653C27.8332 34.1598 27.8088 34.473 27.7943 34.8048C27.7098 36.8179 27.6577 38.8074 27.6379 40.7733C27.6274 41.8022 27.1459 42.5074 26.1935 42.8889C25.2556 43.2655 24.191 42.2962 23.8032 41.5804C23.5856 41.1753 23.4774 40.6857 23.4787 40.1116C23.4886 37.5076 23.6133 34.9371 23.4134 32.3499C23.3514 31.5359 23.2089 30.7245 22.986 29.9155C22.9746 29.8733 22.9804 29.8285 23.0024 29.7902C23.0244 29.7518 23.061 29.7227 23.1047 29.7086C24.4364 29.2761 26.7891 29.3004 27.7883 30.4169C27.815 30.447 27.853 30.4661 27.8943 30.4703C27.9357 30.4745 27.9771 30.4634 28.0099 30.4393C28.9769 29.7322 30.1747 29.411 31.6033 29.4756C32.8439 29.5334 33.7442 30.0665 34.6742 30.7338C34.7268 30.7721 34.7912 30.7934 34.8579 30.7944C34.9245 30.7954 34.9899 30.7761 35.0443 30.7394C36.4663 29.785 38.007 29.3352 39.6665 29.3898C39.7443 29.3923 39.7734 29.3588 39.7536 29.2892C39.4832 28.2727 39.3196 27.1325 39.2629 25.8687C39.251 25.614 39.3044 25.3729 39.4231 25.1455C39.5874 24.8286 39.6032 24.4614 39.8921 24.2154C40.2245 23.9333 40.58 23.6593 40.9586 23.3934C41.3464 23.1231 41.1743 22.8043 41.3979 22.4912C41.4849 22.3682 41.5885 22.2557 41.7085 22.1538C41.7653 22.1066 41.7969 22.0482 41.8035 21.9786C41.8457 21.576 41.9407 21.2094 42.0884 20.8788C42.4664 20.04 43.6496 19.738 44.5242 19.7679C44.7366 19.7753 44.9286 19.8499 45.1 19.9916C45.1172 20.0054 45.138 20.0148 45.1603 20.0185C45.1825 20.0223 45.2055 20.0203 45.2267 20.0129C45.2479 20.0055 45.2666 19.9929 45.2809 19.9763C45.2951 19.9598 45.3044 19.9399 45.3078 19.9189C45.5235 18.5581 46.6157 17.5982 48.1552 17.93C49.0733 18.1288 49.7619 18.583 50.2209 19.2926C50.2317 19.3092 50.2471 19.3227 50.2655 19.3317C50.2838 19.3406 50.3044 19.3446 50.3251 19.3433C50.3457 19.342 50.3655 19.3353 50.3824 19.324C50.3993 19.3128 50.4126 19.2974 50.4208 19.2795C50.9036 18.2096 51.1509 17.1173 51.2182 15.9485C51.2617 15.2123 51.4774 14.5151 51.5308 13.7788C51.6628 11.9894 51.761 10.1863 51.8257 8.36952C51.8652 7.24925 52.9199 6.18304 54.1546 6.7236C55.4625 7.29585 55.3794 8.31732 55.4249 9.45809C55.5371 12.2752 55.4335 14.9929 55.1143 17.6112C55.014 18.4264 54.9751 19.2006 54.9975 19.9338C55.0648 22.1842 54.9019 24.6161 54.5088 27.2295C54.4085 27.8943 54.3789 28.6113 54.4198 29.3805C54.4237 29.4489 54.4613 29.4893 54.5325 29.5017C55.5634 29.6769 56.3668 30.2119 57.2038 30.7692C57.2391 30.7926 57.2813 30.8052 57.3245 30.8052C57.3677 30.8052 57.4099 30.7926 57.4452 30.7692C59.228 29.5781 61.4006 28.9909 63.5198 29.7291C65.366 30.3703 65.7162 32.1486 65.7202 33.7833C65.7281 36.4836 65.7874 38.9223 65.8982 41.0995C65.9358 41.832 64.8555 42.6578 64.2955 42.8796C63.7164 43.1083 63.1228 43.0113 62.5146 42.5888C61.8656 42.1377 61.5345 41.5301 61.5213 40.7658C61.491 39.0348 61.4785 37.2286 61.4837 35.3472C61.4851 34.9781 61.4679 34.6109 61.4323 34.2456C61.2423 32.3033 57.9973 32.5475 57.9577 34.3071C57.9089 36.5153 57.8805 38.5912 57.8726 40.5347C57.87 41.4418 57.5375 42.1197 56.8753 42.5683C55.6584 43.3922 54.024 42.4863 53.7529 41.2039C53.6949 40.9292 53.6698 40.6496 53.6777 40.3651C53.6804 40.2893 53.6415 40.252 53.561 40.2532C53.5267 40.2532 53.4931 40.2594 53.4601 40.2719C53.4543 40.2741 53.448 40.2749 53.4417 40.2744C53.4355 40.2739 53.4296 40.2719 53.4244 40.2688C53.4193 40.2656 53.4152 40.2613 53.4124 40.2564C53.4097 40.2514 53.4084 40.2458 53.4086 40.2402C53.4324 39.2895 53.4304 38.3383 53.4027 37.3864C53.373 36.3463 53.5392 35.3714 53.5551 34.3555C53.5788 32.7693 52.1541 32.8103 51.0085 33.1495C50.6919 33.2446 50.3634 33.4627 50.3337 33.8075C50.2902 34.3419 50.2526 34.8986 50.2209 35.4777C50.217 35.5485 50.2493 35.5982 50.3179 35.6268L50.4722 35.692C50.5844 35.7405 50.5863 35.7939 50.4782 35.8523C50.432 35.8772 50.3819 35.8846 50.3278 35.8747C50.2354 35.8585 50.1893 35.8946 50.1893 35.9828C50.1695 37.6592 50.1312 39.3355 50.0745 41.0119C50.0481 41.8072 49.6313 42.4086 48.824 42.8162C48.4454 43.0076 48.0714 43.0244 47.702 42.8666C46.5254 42.362 45.9384 41.4325 45.941 40.078C45.9469 37.364 46.0894 34.678 45.8361 31.992C45.7702 31.2862 45.6402 30.6021 45.4463 29.9397C45.4308 29.8888 45.437 29.8342 45.4636 29.7876C45.4903 29.7409 45.5352 29.7059 45.5888 29.6899C45.9977 29.5682 46.3928 29.4973 46.774 29.4774C46.9007 29.4712 46.9858 29.4122 47.0293 29.3004L47.1539 28.9872C47.2027 28.863 47.1592 28.8176 47.0233 28.8511C46.282 29.0338 45.635 28.871 45.0822 28.3628C44.9991 28.287 44.9305 28.2969 44.8765 28.3926C44.4979 29.0537 43.7981 29.2954 42.777 29.1177C42.7408 29.1112 42.7063 29.0978 42.6757 29.0782C42.6451 29.0587 42.619 29.0334 42.599 29.004L41.847 27.8986C41.7481 27.7532 41.6254 27.7315 41.479 27.8334C41.1453 28.0633 40.7667 28.1795 40.3432 28.182C40.2984 28.182 40.2753 28.1608 40.274 28.1186L40.272 28.0664C40.2715 28.0517 40.2771 28.0373 40.2878 28.0262C40.2984 28.0152 40.3133 28.0082 40.3294 28.0068C40.7304 27.9732 41.0806 27.8533 41.3801 27.647C41.5146 27.555 41.5357 27.4444 41.4434 27.3152L40.9428 26.6162C40.8689 26.5118 40.7799 26.5 40.6757 26.5808C40.5332 26.6901 40.3676 26.7628 40.179 26.7989C40.1302 26.8076 40.0873 26.7964 40.0504 26.7653C40.0214 26.7417 40.0101 26.7187 40.0167 26.6964C40.0247 26.6678 40.0425 26.6454 40.0702 26.6293C40.2232 26.5398 40.3742 26.4627 40.5233 26.3981C40.6829 26.3298 40.6789 26.2714 40.5114 26.2229L39.9336 26.0551C39.8176 26.0216 39.7621 26.062 39.7674 26.1763C39.8228 27.2848 39.9587 28.3479 40.175 29.3656C40.1832 29.4028 40.2027 29.4369 40.2311 29.464C40.2595 29.4911 40.2957 29.51 40.3353 29.5185C42.128 29.8888 43.0844 31.0078 43.2044 32.8755C43.2783 34.0175 43.3027 35.2975 43.2777 36.7154C43.2678 37.2764 43.8693 37.1217 44.2393 37.1571C44.7063 37.1994 45.1475 37.1341 45.5631 36.9614C45.5955 36.9481 45.6316 36.9451 45.6656 36.9528C45.6996 36.9606 45.7297 36.9787 45.751 37.0043L45.7847 37.0453C45.7934 37.0552 45.7994 37.067 45.8022 37.0796C45.8049 37.0923 45.8043 37.1054 45.8004 37.1177C45.7965 37.1301 45.7894 37.1413 45.7797 37.1505C45.7701 37.1596 45.7582 37.1664 45.7451 37.1702C45.075 37.3715 44.3857 37.4106 43.6774 37.2876C43.6576 37.2843 43.6374 37.2851 43.6181 37.2901C43.5987 37.2951 43.5808 37.3041 43.5657 37.3164C43.5505 37.3287 43.5384 37.3441 43.5304 37.3613C43.5223 37.3786 43.5184 37.3974 43.5191 37.4162L43.6358 40.7733C43.6384 40.8392 43.6048 40.8764 43.5349 40.8851C43.5085 40.8876 43.4848 40.9007 43.4637 40.9243C43.4518 40.9379 43.4452 40.9529 43.4439 40.969ZM47.518 25.2984C47.4824 25.4462 47.394 25.5618 47.2529 25.6451C47.1645 25.696 47.1625 25.7507 47.2469 25.8091L48.4658 26.6423C48.5107 26.6734 48.5344 26.7156 48.5371 26.7691C48.5397 26.8386 48.5113 26.9002 48.452 26.9536C48.4075 26.9937 48.3806 27.0481 48.3765 27.1057C48.3725 27.1634 48.3917 27.2202 48.4302 27.2649C49.1887 28.1459 50.18 28.7903 51.4042 29.1978C51.424 29.2041 51.4306 29.2165 51.424 29.2351L51.4042 29.2873C51.3844 29.342 51.3448 29.36 51.2855 29.3414C50.1233 28.9723 49.1366 28.3615 48.3253 27.5091C48.3152 27.4982 48.3022 27.4899 48.2876 27.4852C48.2731 27.4804 48.2574 27.4793 48.2423 27.4819C48.2271 27.4845 48.213 27.4908 48.2012 27.5002C48.1894 27.5095 48.1803 27.5216 48.175 27.5352L47.4705 29.3339C47.4402 29.4122 47.4692 29.4538 47.5576 29.4588C48.2937 29.5017 48.8754 29.6266 49.5383 29.8726C49.6742 29.9223 49.6867 29.9024 49.5759 29.813L48.5034 28.9425C48.4869 28.9287 48.4764 28.9098 48.4742 28.8896C48.472 28.8695 48.4782 28.8497 48.4915 28.8344L48.5351 28.7859C48.5398 28.7806 48.5455 28.7762 48.552 28.7729C48.5584 28.7696 48.5654 28.7676 48.5726 28.7669C48.5798 28.7662 48.587 28.7669 48.5938 28.7688C48.6006 28.7708 48.6069 28.7741 48.6122 28.7784L50.4801 30.2025C50.5267 30.2384 50.5843 30.2593 50.6447 30.2623C50.7051 30.2653 50.7653 30.2503 50.8165 30.2193C51.7492 29.6477 52.79 29.406 53.9389 29.4942C53.9541 29.4955 53.9693 29.4935 53.9836 29.4884C53.9978 29.4834 54.0106 29.4753 54.0211 29.4649C54.0315 29.4546 54.0394 29.4421 54.044 29.4284C54.0486 29.4148 54.0499 29.4003 54.0478 29.3861C53.9884 28.9481 53.9567 28.5231 54.0062 28.0776C54.2028 26.3217 54.3749 24.6329 54.5227 23.0112C54.6612 21.4902 54.5128 19.8611 54.6335 18.2953C54.7179 17.213 54.7997 16.1604 54.8788 15.1377C55.0424 13.0065 55.0312 10.6629 54.8452 8.10669C54.7779 7.17842 53.5986 6.57075 52.8012 7.21756C52.441 7.50959 52.2603 7.90724 52.259 8.41052C52.2537 10.8934 52.0189 13.7204 51.5546 16.8917C51.4227 17.7902 51.1661 18.6992 50.7849 19.6188C50.7611 19.6759 50.7216 19.7194 50.6661 19.7492C50.5224 19.8263 50.4524 19.9437 50.4564 20.1015C50.4841 21.159 50.5171 22.1855 50.5553 23.1809C50.5646 23.3871 50.6734 23.54 50.8818 23.6394C50.9847 23.6891 51.0691 23.6698 51.1351 23.5816C51.2261 23.4598 51.3429 23.3884 51.4853 23.3673C51.6779 23.3387 51.7023 23.3865 51.5585 23.5108L51.2241 23.8034C51.2145 23.8119 51.2068 23.8223 51.2016 23.8337C51.1965 23.8452 51.1939 23.8576 51.1941 23.87C51.1943 23.8825 51.1972 23.8948 51.2027 23.9061C51.2082 23.9174 51.2162 23.9275 51.2261 23.9358L52.0987 24.6534C52.1509 24.6962 52.2166 24.7215 52.2857 24.7256C52.3547 24.7296 52.4232 24.7121 52.4806 24.6758L53.6065 23.9675C53.6619 23.9327 53.7068 23.942 53.7411 23.9954L53.7747 24.0495C53.7958 24.0855 53.7885 24.1153 53.7529 24.139L52.722 24.8212C52.635 24.8796 52.6383 24.933 52.7319 24.9815L53.3611 25.3058C53.4706 25.3605 53.4977 25.4406 53.4423 25.5463L53.4067 25.6115C53.3929 25.6375 53.3733 25.6603 53.3492 25.6784C53.3252 25.6965 53.2973 25.7095 53.2676 25.7164C53.2378 25.7233 53.2069 25.724 53.1769 25.7185C53.1469 25.7129 53.1186 25.7012 53.094 25.6842C52.5519 25.3133 51.9464 25.084 51.4458 24.6422C50.7031 23.9836 49.9888 23.3729 49.3028 22.8099C48.9097 22.4881 48.3953 22.3147 47.7594 22.2899C46.8426 22.2538 45.9463 22.2321 45.0704 22.2246C44.9807 22.2234 44.9398 22.265 44.9477 22.3495C45.0209 23.151 44.9971 23.9451 43.9801 24.1557C43.2255 24.3123 42.5264 24.1862 41.8827 23.7773C41.8748 23.7736 41.8688 23.7749 41.8649 23.7811L41.8352 23.8202C41.8141 23.8513 41.8187 23.878 41.849 23.9004C42.2092 24.1601 42.5614 24.3993 42.9057 24.618C43.2361 24.8268 43.6061 24.7112 43.9524 24.8808C44.4919 25.1443 45.2432 25.3294 46.2061 25.4363C46.6078 25.4792 47.0095 25.2741 47.3914 25.1828C47.4085 25.1785 47.4266 25.1785 47.4437 25.1827C47.4609 25.1869 47.4766 25.1952 47.4894 25.2069C47.5021 25.2185 47.5115 25.233 47.5165 25.2491C47.5215 25.2651 47.522 25.2821 47.518 25.2984ZM48.167 21.8742C48.7844 21.9003 49.5027 22.4856 49.9776 22.8304C50.0725 22.9 50.1167 22.8776 50.1101 22.7633C50.0679 22.0513 50.0429 21.2901 50.0349 20.4799C50.027 19.6094 49.7005 18.9887 48.8635 18.6215C47.8227 18.163 46.6236 18.1071 46.0043 19.2366C45.8025 19.6057 45.5294 20.122 45.6739 20.5377C45.7992 20.9018 45.8783 21.2845 45.9113 21.6859C45.9205 21.7841 45.9773 21.8332 46.0815 21.8332C46.7358 21.8307 47.431 21.8444 48.167 21.8742ZM42.502 21.8574L45.4364 21.7605C45.4485 21.7603 45.4605 21.7577 45.4716 21.7531C45.4827 21.7484 45.4926 21.7417 45.5009 21.7334C45.5092 21.7251 45.5157 21.7153 45.5199 21.7045C45.5241 21.6938 45.526 21.6824 45.5255 21.671L45.5195 21.52C45.5125 21.3308 45.4666 21.1448 45.3845 20.9725C45.3023 20.8002 45.1855 20.6451 45.0407 20.5159C44.8959 20.3868 44.7259 20.2862 44.5406 20.2199C44.3552 20.1536 44.158 20.1229 43.9603 20.1295L43.8535 20.1332C43.4546 20.1466 43.0777 20.311 42.8058 20.5903C42.5338 20.8696 42.389 21.2408 42.4031 21.6226L42.409 21.7735C42.4093 21.7848 42.4119 21.7959 42.4167 21.8062C42.4215 21.8165 42.4284 21.8258 42.4371 21.8336C42.4457 21.8414 42.4559 21.8475 42.467 21.8516C42.4782 21.8557 42.49 21.8577 42.502 21.8574ZM44.3224 22.2228L42.1518 22.2768C42.0346 22.2797 41.9233 22.3263 41.8425 22.4063C41.7617 22.4863 41.7178 22.5932 41.7204 22.7037L41.7244 22.8509C41.7287 23.0128 41.767 23.1722 41.837 23.3201C41.9069 23.468 42.0073 23.6016 42.1322 23.713C42.2572 23.8245 42.4043 23.9118 42.5652 23.9698C42.7261 24.0279 42.8976 24.0556 43.0699 24.0513L43.5052 24.0402C43.8528 24.0314 44.1825 23.8933 44.4218 23.6563C44.6611 23.4193 44.7905 23.1028 44.7815 22.7764L44.7775 22.6291C44.776 22.5743 44.763 22.5203 44.7393 22.4702C44.7156 22.4201 44.6816 22.3748 44.6393 22.3371C44.5971 22.2994 44.5473 22.2698 44.493 22.2502C44.4386 22.2306 44.3806 22.2213 44.3224 22.2228ZM40.2918 25.1138C40.327 25.1105 40.3626 25.1163 40.3947 25.1308C40.4268 25.1453 40.4541 25.1677 40.4738 25.1958C41.1782 26.1925 41.8754 27.1972 42.5653 28.2099C42.6669 28.3578 42.7737 28.4957 42.8859 28.6237C43.0877 28.8549 43.1939 28.8207 43.2044 28.5212C43.2222 28.0105 43.6378 27.8968 44.0434 27.7272C44.2228 27.6526 44.4049 27.6203 44.5895 27.6302C44.6113 27.6314 44.633 27.6278 44.6529 27.6196C44.6729 27.6114 44.6905 27.599 44.7044 27.5832C44.7183 27.5674 44.728 27.5487 44.7328 27.5287C44.7376 27.5087 44.7373 27.4879 44.732 27.4681C44.5724 26.8616 44.3475 26.2676 44.0573 25.6861C43.895 25.3617 43.5824 25.1138 43.1847 25.1269C43.0118 25.1331 42.8529 25.0915 42.7078 25.002C42.0654 24.6031 41.5984 24.2085 41.3069 23.8183C41.2699 23.7686 41.2244 23.7599 41.1703 23.7922C40.6519 24.0917 40.2529 24.4645 39.9732 24.9106C39.8716 25.0734 39.9204 25.1461 40.1196 25.1287L40.2918 25.1138ZM40.0069 25.304C39.9607 25.2667 39.9191 25.2704 39.8822 25.3151C39.7859 25.4344 39.78 25.5413 39.8644 25.6357C39.9264 25.7041 40.0108 25.742 40.1177 25.7494C40.2206 25.7557 40.2575 25.7128 40.2285 25.6208C40.1915 25.5015 40.1177 25.3959 40.0069 25.304ZM45.7728 28.1969C45.5631 27.6321 45.6956 26.8529 46.4594 26.8063C46.7074 26.7902 46.9567 26.7852 47.2074 26.7914C47.4527 26.7989 47.5675 26.9722 47.7218 27.1158C47.8973 27.2786 47.9718 27.2444 47.9454 27.0132C47.8979 26.6162 47.2351 26.2509 46.8809 26.0701C46.5722 25.9147 46.2305 25.8197 45.8559 25.7849C45.4338 25.7451 44.9971 25.6594 44.546 25.5276C44.389 25.4829 44.358 25.5233 44.453 25.6488C44.887 26.2316 45.1027 26.8939 45.1 27.6358C45.1 27.7054 45.1231 27.7669 45.1693 27.8204C45.3104 27.9881 45.4654 28.1428 45.6343 28.2845C45.8005 28.4249 45.8467 28.3957 45.7728 28.1969ZM47.4193 27.1722C47.3484 27.0983 47.261 27.0398 47.1621 26.9999C47.0632 26.9601 46.9546 26.9397 46.8427 26.94C46.7309 26.9403 46.6178 26.9613 46.5099 27.0017C46.4021 27.0421 46.3017 27.1011 46.2143 27.1754C46.0379 27.3256 45.9257 27.5289 45.9022 27.7406C45.8787 27.9523 45.946 28.1551 46.0892 28.3044C46.1601 28.3784 46.2475 28.4369 46.3464 28.4768C46.4453 28.5166 46.5538 28.537 46.6657 28.5367C46.7776 28.5364 46.8907 28.5154 46.9985 28.475C47.1064 28.4346 47.2068 28.3756 47.2942 28.3012C47.4705 28.1511 47.5828 27.9478 47.6063 27.7361C47.6298 27.5243 47.5625 27.3215 47.4193 27.1722ZM44.5298 27.9706C44.506 27.9378 44.4686 27.9143 44.4197 27.9014C44.3708 27.8885 44.3112 27.8865 44.2445 27.8954C44.1778 27.9043 44.1052 27.9241 44.0309 27.9535C43.9566 27.9828 43.882 28.0213 43.8113 28.0667C43.7407 28.1121 43.6754 28.1635 43.6193 28.218C43.5631 28.2724 43.5171 28.3289 43.484 28.3841C43.4508 28.4394 43.4311 28.4924 43.426 28.54C43.4209 28.5876 43.4305 28.629 43.4542 28.6618C43.4779 28.6945 43.5153 28.718 43.5642 28.7309C43.6132 28.7438 43.6727 28.7459 43.7394 28.7369C43.8061 28.728 43.8787 28.7083 43.953 28.6789C44.0274 28.6495 44.102 28.611 44.1726 28.5656C44.2432 28.5203 44.3085 28.4689 44.3647 28.4144C44.4208 28.3599 44.4668 28.3035 44.5 28.2482C44.5331 28.193 44.5528 28.14 44.5579 28.0924C44.5631 28.0447 44.5535 28.0034 44.5298 27.9706ZM50.1754 30.3554C50.1939 30.4014 50.2275 30.4324 50.2763 30.4486C50.3106 30.4585 50.3403 30.4529 50.3654 30.4318C50.4155 30.3921 50.4129 30.356 50.3575 30.3237L50.031 30.1243C49.9624 30.082 49.9479 30.0944 49.9874 30.1615C50.0099 30.2001 50.0415 30.2299 50.0824 30.251C50.126 30.2759 50.157 30.3107 50.1754 30.3554Z" fill="white"/>
<path d="M54.2754 11.223L53.0159 11.1422C52.945 11.1376 52.8837 11.188 52.8788 11.2548L52.8775 11.2734C52.8726 11.3401 52.9262 11.398 52.997 11.4025L54.2565 11.4834C54.3274 11.4879 54.3888 11.4375 54.3936 11.3708L54.395 11.3522C54.3998 11.2854 54.3463 11.2276 54.2754 11.223Z" fill="white"/>
<path d="M52.5321 14.4946C53.0611 14.3853 53.5723 14.4468 54.0656 14.6792C54.0751 14.6836 54.083 14.6905 54.0883 14.6992C54.0936 14.7078 54.096 14.7177 54.0953 14.7276L54.0933 14.832C54.0907 14.8879 54.0636 14.9028 54.0122 14.8767C53.5663 14.6618 53.0934 14.5953 52.5935 14.6773C52.5302 14.6872 52.4972 14.6618 52.4945 14.6009L52.4926 14.5431C52.4926 14.517 52.5057 14.5008 52.5321 14.4946Z" fill="white"/>
<path d="M53.0782 15.3283C53.3941 15.3707 53.66 15.3406 53.672 15.2611C53.684 15.1816 53.4376 15.0828 53.1217 15.0404C52.8058 14.9981 52.5399 15.0282 52.5279 15.1077C52.5159 15.1872 52.7623 15.286 53.0782 15.3283Z" fill="white"/>
<path d="M46.9007 19.0596C46.8995 19.0515 46.9018 19.0433 46.9069 19.0367C46.9121 19.03 46.9198 19.0256 46.9284 19.0242L46.968 19.0149C47.1232 18.9862 47.2774 18.9603 47.4216 18.9387C47.5658 18.9171 47.6971 18.9003 47.8078 18.8892C47.9185 18.8781 48.0064 18.8729 48.0664 18.874C48.1264 18.8751 48.1572 18.8825 48.1572 18.8956L48.1651 18.9347C48.1677 18.9472 48.1401 18.9652 48.0838 18.9876C48.0274 19.01 47.9435 19.0364 47.8367 19.0653C47.7299 19.0942 47.6025 19.1251 47.4615 19.1561C47.3206 19.1871 47.169 19.2176 47.0154 19.246L46.9759 19.2535C46.9672 19.2551 46.9582 19.2535 46.9508 19.249C46.9434 19.2445 46.9382 19.2374 46.9363 19.2293L46.9007 19.0596Z" fill="white"/>
<path d="M43.8696 20.8307C44.0837 20.7759 44.2447 20.688 44.2292 20.6343C44.2138 20.5807 44.0277 20.5816 43.8136 20.6364C43.5995 20.6912 43.4385 20.7791 43.454 20.8327C43.4695 20.8864 43.6555 20.8854 43.8696 20.8307Z" fill="white"/>
<path d="M76.1829 41.5555C76.1775 41.5425 76.1686 41.531 76.1573 41.522C76.1459 41.513 76.1323 41.5069 76.1178 41.5041C76.1032 41.5013 76.0881 41.502 76.0739 41.5061C76.0598 41.5102 76.0469 41.5176 76.0365 41.5276C74.5564 42.9256 72.6113 43.2387 70.6346 42.8398C69.5859 42.6273 68.9369 42.0476 68.4165 41.1678C68.1513 40.7205 68.0036 40.3297 67.9732 39.9954C67.902 39.205 67.7675 37.8909 68.2364 37.1397C69.6453 34.8787 73.2168 34.3903 75.7357 34.7053C75.8281 34.7165 75.8782 34.6786 75.8861 34.5916C75.9553 33.8181 75.9435 32.9178 74.8908 32.7854C73.5519 32.6164 72.3851 32.9265 71.3905 33.7156C70.4348 34.4742 69.0635 33.4751 68.6084 32.681C68.2364 32.0324 69.1229 31.4042 69.6255 31.0966C71.6477 29.8571 73.8104 29.6278 76.1671 29.8683C78.8462 30.1404 80.2036 31.9261 80.1383 34.4071C80.0935 36.1568 80.0724 37.8909 80.075 39.6095C80.077 40.7074 80.4787 40.8323 81.5274 40.5881C81.5404 40.5852 81.5539 40.5859 81.5666 40.5899C81.5792 40.5939 81.5904 40.6012 81.5988 40.6109C81.6073 40.6206 81.6126 40.6323 81.6144 40.6448C81.6161 40.6573 81.6141 40.6699 81.6085 40.6813C81.4146 41.0839 81.2622 41.5201 80.9951 41.8817C80.3276 42.7814 79.3297 43.1275 78.0013 42.92C77.1109 42.7808 76.5048 42.326 76.1829 41.5555ZM75.2153 39.6599C75.5022 39.4585 75.6902 39.1845 75.7139 38.8453C75.7548 38.2538 75.7905 37.6505 75.8208 37.0353C75.8234 36.9757 75.7931 36.9428 75.7298 36.9365C74.2794 36.8117 71.4617 36.8844 71.6299 38.9497C71.7842 40.8342 74.1409 40.4185 75.2153 39.6599Z" fill="white"/>
<path d="M88.2233 31.5033C89.7529 30.1072 91.1756 29.6952 93.273 29.8816C94.2307 29.9674 94.8916 30.7018 95.4694 31.3989C95.7925 31.7891 95.9904 32.1669 96.063 32.5322C96.1619 33.0305 96.216 33.509 96.2252 33.9675C96.2767 36.6268 96.2602 39.1271 96.1758 41.4682C96.1619 41.8224 96.0491 42.1822 95.7662 42.4245C94.8243 43.2279 93.7776 43.1477 92.8021 42.4468C92.3193 42.1001 92.2164 41.3788 92.2025 40.8624C92.1603 39.3352 92.1399 37.757 92.1412 36.1279C92.1425 35.4991 92.0838 34.9194 91.9651 34.3888C91.7909 33.6084 91.2778 33.2555 90.4256 33.33C89.5451 33.4064 88.3025 33.8874 88.2649 34.8622C88.1897 36.7933 88.1251 38.868 88.071 41.0861C88.0525 41.8429 87.6739 42.4077 86.9352 42.7805C85.6589 43.4236 84.7151 42.4655 84.1413 41.5428C84.0911 41.4633 84.0654 41.3769 84.0641 41.2837C84.0265 36.126 84.0661 31.0056 83.8385 25.8871C83.8128 25.285 83.698 24.7016 83.6169 24.1051C83.6096 24.0532 83.6226 24.0005 83.6534 23.9564C83.6842 23.9123 83.7309 23.8798 83.7851 23.8646C84.8951 23.5515 86.6067 23.4303 87.604 24.133C88.1976 24.5506 88.4562 25.1831 88.3796 26.0306C88.2161 27.8436 88.1363 29.6567 88.1402 31.4697C88.1403 31.4788 88.1432 31.4875 88.1486 31.495C88.1539 31.5025 88.1614 31.5084 88.1702 31.512C88.179 31.5155 88.1887 31.5166 88.1981 31.515C88.2076 31.5135 88.2163 31.5094 88.2233 31.5033Z" fill="white"/>
</svg>
